<svg xmlns="http://www.w3.org/2000/svg" xmlns:xlink="http://www.w3.org/1999/xlink" width="153.801" height="151.4" viewBox="0 0 153.801 151.4">
  <defs>
    <filter id="패스_1626" x="0.5" y="3.5" width="155.852" height="150.395" filterUnits="userSpaceOnUse">
      <feOffset dy="3" input="SourceAlpha"/>
      <feGaussianBlur stdDeviation="3" result="blur"/>
      <feFlood flood-opacity="0.161"/>
      <feComposite operator="in" in2="blur"/>
      <feComposite in="SourceGraphic"/>
    </filter>
    <linearGradient id="linear-gradient" x1="-0.224" y1="-0.122" x2="0.604" y2="0.727" gradientUnits="objectBoundingBox">
      <stop offset="0" stop-color="#00a6e2"/>
      <stop offset="1" stop-color="#03b5f5"/>
    </linearGradient>
    <linearGradient id="linear-gradient-2" x1="0.349" y1="0.169" x2="0.5" y2="1.257" gradientUnits="objectBoundingBox">
      <stop offset="0" stop-color="#00a6e2"/>
      <stop offset="1" stop-color="#0086b7"/>
    </linearGradient>
    <clipPath id="clip-complete_illuts">
      <rect width="153.8" height="151.4"/>
    </clipPath>
  </defs>
  <g id="complete_illuts" clip-path="url(#clip-complete_illuts)">
    <g id="_3" data-name="3" transform="translate(-590.4 -58.762)">
      <g transform="matrix(1, 0, 0, 1, 590.4, 58.76)" filter="url(#패스_1626)">
        <path id="패스_1626-2" data-name="패스 1626" d="M735.737,74a10.954,10.954,0,0,0-8.828-5.164c-.81-.05-109.986-.075-109.986-.075A16.592,16.592,0,0,0,600.4,85.421v96.926a17.737,17.737,0,0,0,17.663,17.81h94.984a17.739,17.739,0,0,0,17.664-17.812V94.662a10.148,10.148,0,0,1,3.122-7.331h0l.1-.092A10.73,10.73,0,0,0,735.737,74Z" transform="translate(-590.4 -58.76)" fill="#fff" stroke="rgba(0,0,0,0)" stroke-width="1"/>
      </g>
      <path id="패스_1627" data-name="패스 1627" d="M712.048,119.256l6.417-7.185a4.1,4.1,0,0,1,7.148,2.766v72.217a7.928,7.928,0,0,1-7.894,7.96H620.449a7.928,7.928,0,0,1-7.894-7.96V88.978a7.927,7.927,0,0,1,7.894-7.96h72.117a4.138,4.138,0,0,1,3.047,6.9l-5.541,6.205a7.626,7.626,0,0,1-5.686,2.552H631.874a3.8,3.8,0,0,0-3.789,3.82v75.039a3.8,3.8,0,0,0,3.789,3.82h74.42a3.8,3.8,0,0,0,3.789-3.82V124.419A7.752,7.752,0,0,1,712.048,119.256Z" transform="translate(-3.528 -3.558)" fill="url(#linear-gradient)"/>
      <path id="패스_1628" data-name="패스 1628" d="M647.925,128.889c12.28,12.021,20.5,27.981,24.47,36.86a6.68,6.68,0,0,0,9.283,3.191c3.433-1.852,7.555-4.1,10.627-5.857a7.513,7.513,0,0,0,3.525-4.776c8.52-34.6,36.045-64.781,45.553-73.839a1.951,1.951,0,0,0-1.16-3.358,32.249,32.249,0,0,0-5.141.023,37.306,37.306,0,0,0-19.4,7.724c-16.16,12.292-25.925,31.085-30,39.82a4.813,4.813,0,0,0-.187,3.613,58.446,58.446,0,0,1,2.173,9.088,1.115,1.115,0,0,1-2.12.636,74.621,74.621,0,0,0-17.522-24.492,7.61,7.61,0,0,0-6.775-1.691,34.1,34.1,0,0,0-12.965,5.94A4.706,4.706,0,0,0,647.925,128.889Z" transform="translate(-13.373 -3.558)" fill="url(#linear-gradient-2)"/>
    </g>
  </g>
</svg>
