<svg xmlns="http://www.w3.org/2000/svg" xmlns:xlink="http://www.w3.org/1999/xlink" width="48.242" height="41.703" viewBox="0 0 48.242 41.703">
  <defs>
    <linearGradient id="linear-gradient" x1="0.5" x2="0.5" y2="1.374" gradientUnits="objectBoundingBox">
      <stop offset="0" stop-color="#f9f9f9"/>
      <stop offset="1" stop-color="#ebebeb"/>
    </linearGradient>
    <linearGradient id="linear-gradient-2" x1="0.915" y1="0.027" x2="0.5" y2="1" gradientUnits="objectBoundingBox">
      <stop offset="0" stop-color="#a2a2a2"/>
      <stop offset="0.351" stop-color="#d5d5d5"/>
      <stop offset="0.644" stop-color="#d4d4d4"/>
      <stop offset="1" stop-color="#b7b7b7"/>
    </linearGradient>
  </defs>
  <g id="그룹_5757" data-name="그룹 5757" transform="translate(-1009.824 -2522.072)">
    <path id="합치기_36" data-name="합치기 36" d="M19014.34,21449.82c-.5-5.568-3.41-4.943-5.883-14.25s1.924-12.861,1.924-12.861l8.811-4.373s3.545-1.137,5.758.764a12.206,12.206,0,0,0,5.1,2.424s1.158,1.648,3.313,0,2.041-2,4.336-3.187,4.857-1.707,7.648,0l4.842.764c.775-.555,5.725,4.18,4.842,10.584s-1.924,18.166-3.527,20.945c-1.654,1.158-8.887,1.869-11.93,1.492s-11.693,1-18.279,2.584c-3.148.758-4.98,2.035-5.982,2.035C19014.213,21456.74,19014.1,21455.215,19014.34,21449.82Z" transform="translate(-17997.418 -18894.352)" fill="url(#linear-gradient)"/>
    <ellipse id="타원_725" data-name="타원 725" cx="4.5" cy="3" rx="4.5" ry="3" transform="translate(1020.523 2525.938) rotate(17)" fill="#fff"/>
    <ellipse id="타원_726" data-name="타원 726" cx="2" cy="1.5" rx="2" ry="1.5" transform="translate(1028.18 2530.27) rotate(17)" fill="#fff"/>
    <ellipse id="타원_727" data-name="타원 727" cx="2.578" cy="1.5" rx="2.578" ry="1.5" transform="translate(1041.477 2529.887) rotate(-50)" fill="#fff"/>
    <path id="패스_20718" data-name="패스 20718" d="M-18574.166-18688.389c2.225,1.82,7.48,4.176,9.742,6.092s2.313,4.039,3.771,4.236-2.937-5.639,3.043-10.328c0,0-2.52,3.793-6.373,4.043C-18567.357-18684.125-18572.107-18687.463-18574.166-18688.389Z" transform="translate(19598.508 21212.016)" fill="#d5d5d5"/>
    <path id="패스_20719" data-name="패스 20719" d="M-19760.629-18648.186c-7.787-1.035-8.816-2.7-12.541,1.613s-8.543,1.047-10.762-.852-5.762-.762-5.762-.762-6.932,1.48-8.807,4.371-2.234,4.018-2.385,10.029,6.117,14.215,6.115,17.777c-.148,4.205-.076,6.193,1.7,6.861,14.4-7.393,29.932-5.76,34.906-5.592a80.222,80.222,0,0,0,3.445-15.119C-19753.836-18636.262-19752.842-18647.15-19760.629-18648.186Z" transform="translate(20811.461 21172.174)" fill="none" stroke="#0d176c" stroke-linecap="round" stroke-linejoin="round" stroke-width="1.5"/>
    <path id="패스_20720" data-name="패스 20720" d="M-19750.533-18634.721c.113.352,2.391,1.965,3.1,4.191" transform="translate(23454.281 17842.789) rotate(-9)" fill="none" stroke="#0d176c" stroke-linecap="round" stroke-width="0.6"/>
    <path id="패스_20721" data-name="패스 20721" d="M-20166.352-20389.254s1.658-16.027,18.1-15.689c-.652,6.418-2.346,14.031-3.355,15.582A82.729,82.729,0,0,0-20166.352-20389.254Z" transform="translate(21204.355 22946)" fill="url(#linear-gradient-2)"/>
  </g>
</svg>
