<svg xmlns="http://www.w3.org/2000/svg" width="14.354" height="14.073" viewBox="0 0 14.354 14.073">
  <g id="icon_pencil_square" transform="translate(0 0)">
    <g id="그룹_7958" data-name="그룹 7958" transform="translate(3.663 0)">
      <path id="패스_29481" data-name="패스 29481" d="M2533.6,276.369l-5.183,5.183a.275.275,0,0,1-.168.079l-2.454.228a.15.15,0,0,1-.163-.163l.228-2.454a.275.275,0,0,1,.079-.169l5.183-5.183a.363.363,0,0,1,.513,0l1.965,1.965A.363.363,0,0,1,2533.6,276.369Z" transform="translate(-2525.628 -271.171)" fill="#33b5e4"/>
      <rect id="사각형_3718" data-name="사각형 3718" width="2.515" height="3.506" rx="1.257" transform="translate(6.434 1.778) rotate(-44.999)" fill="#33b5e4"/>
    </g>
    <path id="패스_29482" data-name="패스 29482" d="M2506.584,265.232v5a.755.755,0,0,1-.755.754h-9.038a.757.757,0,0,1-.754-.754v-8.755a.762.762,0,0,1,.762-.762h5.129a.927.927,0,0,0,.656-.272l.348-.348a.487.487,0,0,0-.344-.831h-5.8a2.205,2.205,0,0,0-2.205,2.205v8.763a2.205,2.205,0,0,0,2.205,2.205h9.038a2.205,2.205,0,0,0,2.205-2.205v-5.658a.487.487,0,0,0-.831-.344l-.348.348A.927.927,0,0,0,2506.584,265.232Z" transform="translate(-2494.586 -258.363)" fill="#33b5e4"/>
  </g>
</svg>
