<svg id="icon_extension_ppt" xmlns="http://www.w3.org/2000/svg" width="22.506" height="30.099" viewBox="0 0 22.506 30.099">
  <path id="패스_32624" data-name="패스 32624" d="M36.936,288.884H29.644a.319.319,0,0,1-.319-.319V281.2a.319.319,0,0,1,.546-.224l7.292,7.365a.319.319,0,0,1-.227.544m-6.973-.639h6.209l-6.209-6.269Z" transform="translate(-14.749 -280.881)" fill="#9396a4"/>
  <path id="패스_32625" data-name="패스 32625" d="M22.185,310.979H.319A.319.319,0,0,1,0,310.66V281.2a.319.319,0,0,1,.319-.319H14.894a.321.321,0,0,1,.227.095l7.292,7.365a.319.319,0,0,1,.092.225v22.1a.319.319,0,0,1-.32.319M.638,310.34H21.866V288.7l-7.106-7.177H.638Z" transform="translate(0 -280.88)" fill="#9396a4"/>
  <rect id="사각형_6050" data-name="사각형 6050" width="21.867" height="7.365" transform="translate(0.32 22.415)" fill="#9396a4"/>
  <path id="패스_32626" data-name="패스 32626" d="M13.6,331.958v1.417h-.771v-3.9H14.37a1.552,1.552,0,0,1,1.05.338,1.18,1.18,0,0,1,.381.9,1.154,1.154,0,0,1-.381.9,1.51,1.51,0,0,1-1.05.347Zm0-.61h.771a.636.636,0,0,0,.493-.178.612.612,0,0,0,.167-.45.693.693,0,0,0-.167-.469.636.636,0,0,0-.493-.178H13.6Zm3.549.61v1.417h-.78v-3.9h1.542a1.535,1.535,0,0,1,1.049.338,1.18,1.18,0,0,1,.381.9,1.154,1.154,0,0,1-.381.9,1.494,1.494,0,0,1-1.049.347Zm0-.61h.762a.635.635,0,0,0,.492-.178.612.612,0,0,0,.167-.45.693.693,0,0,0-.167-.469.635.635,0,0,0-.492-.178h-.762Zm5.434-1.276h-1.1v3.3h-.77v-3.3H19.628v-.6h2.954Z" transform="translate(-6.452 -305.321)" fill="#fefefe"/>
  <path id="패스_32627" data-name="패스 32627" d="M21.384,319.37a.4.4,0,0,1-.348-.2l-1.5-2.684a.4.4,0,0,1,.695-.39l1.505,2.683a.4.4,0,0,1-.153.543.39.39,0,0,1-.195.051m-6.7,0a.39.39,0,0,1-.195-.051.4.4,0,0,1-.153-.543l1.5-2.683a.4.4,0,0,1,.7.39l-1.505,2.684a.4.4,0,0,1-.348.2" transform="translate(-7.185 -298.489)" fill="#9396a4"/>
  <path id="패스_32628" data-name="패스 32628" d="M21.433,300.38a.4.4,0,0,1-.4-.4v-.93a.4.4,0,0,1,.8,0v.93a.4.4,0,0,1-.4.4" transform="translate(-10.58 -289.82)" fill="#9396a4"/>
  <path id="패스_32629" data-name="패스 32629" d="M21.339,308.958h-14a.4.4,0,0,1-.4-.4v-7.638a.4.4,0,0,1,.4-.4h14a.4.4,0,0,1,.4.4v7.638a.4.4,0,0,1-.4.4m-13.6-.8h13.2v-6.84H7.739Z" transform="translate(-3.491 -290.762)" fill="#9396a4"/>
  <path id="패스_32630" data-name="패스 32630" d="M31.816,309.038a.4.4,0,0,1-.4-.4l-.009-3.7a.4.4,0,0,1,.4-.4h0a.4.4,0,0,1,.4.4l.009,3.7a.4.4,0,0,1-.4.4Z" transform="translate(-15.797 -292.783)" fill="#9396a4"/>
  <path id="패스_32631" data-name="패스 32631" d="M29.022,310.586a.4.4,0,0,1-.4-.4v-2.167a.4.4,0,1,1,.8,0v2.167a.4.4,0,0,1-.4.4" transform="translate(-14.397 -294.33)" fill="#9396a4"/>
  <path id="패스_32632" data-name="패스 32632" d="M26.218,311.678a.4.4,0,0,1-.4-.4v-1.088a.4.4,0,1,1,.8,0v1.088a.4.4,0,0,1-.4.4" transform="translate(-12.986 -295.423)" fill="#9396a4"/>
  <path id="패스_32633" data-name="패스 32633" d="M15.239,305.341H10.985a.4.4,0,0,1,0-.8h4.254a.4.4,0,1,1,0,.8" transform="translate(-5.324 -292.783)" fill="#9396a4"/>
  <path id="패스_32634" data-name="패스 32634" d="M13.586,309.061h-2.6a.4.4,0,0,1,0-.8h2.6a.4.4,0,0,1,0,.8" transform="translate(-5.324 -294.653)" fill="#9396a4"/>
  <path id="패스_32635" data-name="패스 32635" d="M16.242,312.78H10.985a.4.4,0,0,1,0-.8h5.258a.4.4,0,0,1,0,.8" transform="translate(-5.324 -296.524)" fill="#9396a4"/>
</svg>
