<svg id="icon_extension_stl" xmlns="http://www.w3.org/2000/svg" width="22.504" height="30.099" viewBox="0 0 22.504 30.099">
  <rect id="사각형_6060" data-name="사각형 6060" width="21.866" height="7.365" transform="translate(0.32 22.415)" fill="#9396a4"/>
  <path id="패스_32667" data-name="패스 32667" d="M21.768,8H14.476a.319.319,0,0,1-.319-.319V.319A.319.319,0,0,1,14.7.095L21.994,7.46A.319.319,0,0,1,21.767,8m-6.973-.637H21L14.794,1.1Z" transform="translate(0.417)" fill="#9396a4"/>
  <path id="패스_32668" data-name="패스 32668" d="M22.19,30.1H.318A.319.319,0,0,1,0,29.78V.319A.319.319,0,0,1,.318,0H14.893a.317.317,0,0,1,.226.095L22.412,7.46a.321.321,0,0,1,.092.224v22.1a.318.318,0,0,1-.317.319h0M.638,29.46H21.867V7.816L14.764.638H.638Z" fill="#9396a4"/>
  <path id="패스_32669" data-name="패스 32669" d="M17.762,13.559V11.192H15.411v.789h-2.34V10.4h-3.9V11.98H6.825v-.789H4.475v2.368h2.35v-.788H8.209A5.973,5.973,0,0,0,5.255,17.9a.4.4,0,0,0,.389.4h0a.389.389,0,0,0,.389-.391V17.9a5.165,5.165,0,0,1,3.131-4.729v1.183h3.9V13.166A5.165,5.165,0,0,1,16.2,17.9a.391.391,0,0,0,.377.4h.013a.4.4,0,0,0,.39-.4h0a5.969,5.969,0,0,0-2.955-5.124h1.384v.788ZM6.039,12.772H5.259v-.789h.779Zm6.252.788H9.951V11.192h2.34ZM16.2,11.983h.779v.789H16.2Z" transform="translate(0.132 0.307)" fill="#9396a4"/>
  <path id="패스_32670" data-name="패스 32670" d="M8.68,26.274a.386.386,0,0,0-.15-.327,1.95,1.95,0,0,0-.544-.242,3.8,3.8,0,0,1-.621-.25,1.014,1.014,0,0,1-.624-.907.891.891,0,0,1,.167-.529,1.1,1.1,0,0,1,.481-.363,1.8,1.8,0,0,1,.7-.131,1.642,1.642,0,0,1,.7.142,1.1,1.1,0,0,1,.476.4,1.044,1.044,0,0,1,.17.589H8.682a.5.5,0,0,0-.158-.391.655.655,0,0,0-.446-.139.691.691,0,0,0-.429.116.367.367,0,0,0-.153.308.355.355,0,0,0,.179.3,2.055,2.055,0,0,0,.529.225,2.285,2.285,0,0,1,.938.481.953.953,0,0,1,.293.713.881.881,0,0,1-.358.745,1.577,1.577,0,0,1-.969.27,1.856,1.856,0,0,1-.769-.154,1.217,1.217,0,0,1-.528-.423,1.077,1.077,0,0,1-.182-.624h.756q0,.607.724.606a.713.713,0,0,0,.421-.109.358.358,0,0,0,.15-.306" transform="translate(0.195 0.693)" fill="#fff"/>
  <path id="패스_32671" data-name="패스 32671" d="M12.613,24.184H11.492v3.048h-.754V24.184H9.632v-.612h2.981Z" transform="translate(0.284 0.695)" fill="#fff"/>
  <path id="패스_32672" data-name="패스 32672" d="M13.7,26.627h1.6v.605H12.945v-3.66H13.7Z" transform="translate(0.382 0.695)" fill="#fff"/>
</svg>
