<svg xmlns="http://www.w3.org/2000/svg" xmlns:xlink="http://www.w3.org/1999/xlink" width="48.242" height="41.703" viewBox="0 0 48.242 41.703">
  <defs>
    <linearGradient id="linear-gradient" x1="0.5" x2="0.5" y2="1.374" gradientUnits="objectBoundingBox">
      <stop offset="0" stop-color="#f9f9f9"/>
      <stop offset="1" stop-color="#ebebeb"/>
    </linearGradient>
    <linearGradient id="linear-gradient-2" x1="0.915" y1="0.027" x2="0.5" y2="1" gradientUnits="objectBoundingBox">
      <stop offset="0" stop-color="#ababab"/>
      <stop offset="0.351" stop-color="#cecece"/>
      <stop offset="0.644" stop-color="#cbcbcb"/>
      <stop offset="1" stop-color="#b4b4b4"/>
    </linearGradient>
    <linearGradient id="linear-gradient-3" x1="0.878" y1="0.046" x2="0.464" y2="1.532" gradientUnits="objectBoundingBox">
      <stop offset="0" stop-color="#818181"/>
      <stop offset="0.494" stop-color="#b7b7b7"/>
      <stop offset="1" stop-color="gray"/>
    </linearGradient>
  </defs>
  <g id="그룹_5760" data-name="그룹 5760" transform="translate(-1240.824 -2522.072)">
    <path id="합치기_39" data-name="합치기 39" d="M19014.34,21449.82c-.5-5.568-3.41-4.943-5.883-14.25s1.924-12.861,1.924-12.861l8.811-4.373s3.545-1.137,5.758.764a12.206,12.206,0,0,0,5.1,2.424s1.158,1.648,3.313,0,2.041-2,4.336-3.187,4.857-1.707,7.648,0l4.842.764c.775-.555,5.725,4.18,4.842,10.584s-1.924,18.166-3.527,20.945c-1.654,1.158-8.887,1.869-11.93,1.492s-11.693,1-18.279,2.584c-3.148.758-4.98,2.035-5.982,2.035C19014.213,21456.74,19014.1,21455.215,19014.34,21449.82Z" transform="translate(-17766.418 -18894.352)" fill="url(#linear-gradient)"/>
    <ellipse id="타원_735" data-name="타원 735" cx="2" cy="1.5" rx="2" ry="1.5" transform="translate(1259.18 2530.27) rotate(17)" fill="#fff"/>
    <path id="패스_20737" data-name="패스 20737" d="M-18574.166-18688.389c2.225,1.82,7.48,4.176,9.742,6.092s2.313,4.039,3.771,4.236-2.937-5.639,3.043-10.328c0,0-2.52,3.793-6.373,4.043C-18567.357-18684.125-18572.107-18687.463-18574.166-18688.389Z" transform="translate(19829.508 21212.016)" fill="#d5d5d5"/>
    <path id="패스_20738" data-name="패스 20738" d="M-20164.34-20389.131c2.619-.5,3.535-5.295,3.535-9.707,0-2.229-3.559-5.158-8.238-7.889-3.1-1.8-12.9-3.729-19.246-5.354-1.578-.4-4.018-1.609-3.441-3.186a9.106,9.106,0,0,1,4.412-4.689c3.178-1.637,5.133-2.562,8.3-1.857,4.891,1.088,10.811,5.762,10.633,4.236,2.646-.98,2.656-1.793,4.76-3.74s5.828-.809,9.18,0c3.168.357,4.447,1.773,5.107,2.68,2.135,2.883,1.721,7.588,1.721,11.141,0,8.119-3.383,17.822-3.736,18.365C-20158.533-20389.3-20158.135-20389.611-20164.34-20389.131Z" transform="translate(21435.16 22945.797)" fill="url(#linear-gradient-2)"/>
    <ellipse id="타원_736" data-name="타원 736" cx="2.578" cy="1.5" rx="2.578" ry="1.5" transform="translate(1272.477 2529.887) rotate(-50)" fill="#fff"/>
    <path id="패스_20739" data-name="패스 20739" d="M-20009.623-20421.484s.3,1.506.98,4.373a4.863,4.863,0,0,1-3.395,5.871c-2.246.609-3.615-1.92-5.588-3.432-1.93-1.475-3.123-3.922-4.217-5.2-1.961-2.281,5.584,2.232,2.719,1.176C-20014.824-20416.656-20009.623-20421.484-20009.623-20421.484Z" transform="translate(21281 22946)" fill="url(#linear-gradient-3)"/>
    <path id="패스_20740" data-name="패스 20740" d="M-19760.629-18648.186c-7.787-1.035-8.816-2.7-12.541,1.613s-8.543,1.047-10.762-.852-5.762-.762-5.762-.762-6.932,1.48-8.807,4.371-2.234,4.018-2.385,10.029,6.117,14.215,6.115,17.777c-.148,4.205-.076,6.193,1.7,6.861,14.4-7.393,29.932-5.76,34.906-5.592a80.222,80.222,0,0,0,3.445-15.119C-19753.836-18636.262-19752.842-18647.15-19760.629-18648.186Z" transform="translate(21042.461 21172.174)" fill="none" stroke="#0d176c" stroke-linecap="round" stroke-linejoin="round" stroke-width="1.5"/>
    <path id="패스_20741" data-name="패스 20741" d="M-19750.533-18634.721c.113.352,2.391,1.965,3.1,4.191" transform="translate(23685.281 17842.789) rotate(-9)" fill="none" stroke="#0d176c" stroke-linecap="round" stroke-width="0.6"/>
    <ellipse id="타원_734" data-name="타원 734" cx="4.5" cy="3" rx="4.5" ry="3" transform="translate(1251.523 2525.938) rotate(17)" fill="#fff"/>
  </g>
</svg>
