<svg xmlns="http://www.w3.org/2000/svg" xmlns:xlink="http://www.w3.org/1999/xlink" width="19.675" height="28.051" viewBox="0 0 19.675 28.051">
  <defs>
    <linearGradient id="linear-gradient" x1="0.5" y1="0.5" x2="0.5" y2="1" gradientUnits="objectBoundingBox">
      <stop offset="0" stop-color="#fa9800"/>
      <stop offset="1" stop-color="#f9af3a"/>
    </linearGradient>
    <linearGradient id="linear-gradient-2" y1="0.34" x2="0.878" y2="0.926" gradientUnits="objectBoundingBox">
      <stop offset="0" stop-color="#ffc365"/>
      <stop offset="1" stop-color="#fa9800"/>
    </linearGradient>
    <linearGradient id="linear-gradient-3" x1="0.5" x2="0.5" y2="1" gradientUnits="objectBoundingBox">
      <stop offset="0" stop-color="#f9af3a"/>
      <stop offset="1" stop-color="#ffd695"/>
    </linearGradient>
    <linearGradient id="linear-gradient-4" x1="0.5" x2="0.5" y2="1.292" gradientUnits="objectBoundingBox">
      <stop offset="0" stop-color="#c27806"/>
      <stop offset="1" stop-color="#fa9800"/>
    </linearGradient>
    <linearGradient id="linear-gradient-5" x1="0.5" x2="0.5" y2="1" gradientUnits="objectBoundingBox">
      <stop offset="0" stop-color="#fed392"/>
      <stop offset="1" stop-color="#fa9800"/>
    </linearGradient>
    <linearGradient id="linear-gradient-6" x1="0.236" y1="0.123" x2="0.806" y2="0.708" gradientUnits="objectBoundingBox">
      <stop offset="0" stop-color="#fa9800"/>
      <stop offset="1" stop-color="#fa9800" stop-opacity="0"/>
    </linearGradient>
    <linearGradient id="linear-gradient-7" x1="0.5" x2="0.5" y2="1" gradientUnits="objectBoundingBox">
      <stop offset="0" stop-color="#ffc56b"/>
      <stop offset="1" stop-color="#fa9800"/>
    </linearGradient>
  </defs>
  <g id="그룹_1084" data-name="그룹 1084" transform="translate(-1577.629 -47.256)">
    <g id="그룹_91" data-name="그룹 91" transform="translate(1577.629 47.256)">
      <g id="그룹_14" data-name="그룹 14" transform="translate(9.443 19.711)">
        <g id="그룹_13" data-name="그룹 13">
          <g id="그룹_12" data-name="그룹 12">
            <g id="그룹_11" data-name="그룹 11">
              <g id="그룹_10" data-name="그룹 10">
                <rect id="사각형_47" data-name="사각형 47" width="0.798" height="5.194" fill="#fa9800"/>
              </g>
            </g>
          </g>
        </g>
      </g>
      <g id="그룹_20" data-name="그룹 20" transform="translate(7.217 22.801)">
        <g id="그룹_19" data-name="그룹 19">
          <g id="그룹_18" data-name="그룹 18">
            <g id="그룹_17" data-name="그룹 17">
              <g id="그룹_16" data-name="그룹 16">
                <path id="패스_109" data-name="패스 109" d="M1717.7,1388.424a2.625,2.625,0,1,1-2.625-2.625A2.625,2.625,0,0,1,1717.7,1388.424Z" transform="translate(-1712.453 -1385.798)" fill="url(#linear-gradient)"/>
              </g>
            </g>
          </g>
        </g>
      </g>
      <g id="그룹_28" data-name="그룹 28" transform="translate(0 16.362)">
        <g id="그룹_27" data-name="그룹 27">
          <g id="그룹_26" data-name="그룹 26">
            <g id="그룹_25" data-name="그룹 25">
              <g id="그룹_24" data-name="그룹 24">
                <g id="그룹_23" data-name="그룹 23">
                  <g id="그룹_22" data-name="그룹 22">
                    <path id="패스_110" data-name="패스 110" d="M1679.9,1312.647l-.009,3.131c0,1.448-.955,2.893-2.856,4a15.324,15.324,0,0,1-13.906,0c-1.938-1.119-2.907-2.589-2.9-4.056l.009-3.131c0,1.467.964,2.936,2.9,4.056a15.324,15.324,0,0,0,13.906,0c1.9-1.1,2.852-2.55,2.856-4" transform="translate(-1660.229 -1312.589)" fill="#fa9800"/>
                  </g>
                </g>
              </g>
            </g>
          </g>
        </g>
      </g>
      <g id="그룹_35" data-name="그룹 35" transform="translate(0 16.362)">
        <g id="그룹_34" data-name="그룹 34">
          <g id="그룹_33" data-name="그룹 33">
            <g id="그룹_32" data-name="그룹 32">
              <g id="그룹_31" data-name="그룹 31">
                <g id="그룹_30" data-name="그룹 30">
                  <g id="그룹_29" data-name="그룹 29">
                    <path id="패스_111" data-name="패스 111" d="M1669.818,1318.309a14.089,14.089,0,0,1-6.678-1.664c-1.938-1.119-2.907-2.589-2.9-4.056l-.009,3.131c0,1.467.964,2.936,2.9,4.056a14.093,14.093,0,0,0,6.687,1.664s-2.25-.082-2.2-1.339,1.083-1.108,2.2-1.217c2.957-.175,8.714-.892,10.071-4.769.02-.641,0-1.415,0-1.415Z" transform="translate(-1660.229 -1312.589)" fill="url(#linear-gradient-2)"/>
                  </g>
                </g>
              </g>
            </g>
          </g>
        </g>
      </g>
      <g id="그룹_42" data-name="그룹 42" transform="translate(0.009 10.694)">
        <g id="그룹_41" data-name="그룹 41">
          <g id="그룹_40" data-name="그룹 40">
            <g id="그룹_39" data-name="그룹 39">
              <g id="그룹_38" data-name="그룹 38">
                <g id="그룹_37" data-name="그룹 37">
                  <g id="그룹_36" data-name="그룹 36">
                    <path id="패스_112" data-name="패스 112" d="M1677.055,1273.219c3.853,2.224,3.875,5.83.047,8.054a15.324,15.324,0,0,1-13.906,0c-3.853-2.224-3.873-5.831-.045-8.055A15.321,15.321,0,0,1,1677.055,1273.219Z" transform="translate(-1660.293 -1271.55)" fill="url(#linear-gradient-3)"/>
                  </g>
                </g>
              </g>
            </g>
          </g>
        </g>
      </g>
      <g id="그룹_49" data-name="그룹 49" transform="translate(1.369 11.481)">
        <g id="그룹_48" data-name="그룹 48">
          <g id="그룹_47" data-name="그룹 47">
            <g id="그룹_46" data-name="그룹 46">
              <g id="그룹_45" data-name="그룹 45">
                <g id="그룹_44" data-name="그룹 44">
                  <g id="그룹_43" data-name="그룹 43">
                    <path id="패스_113" data-name="패스 113" d="M1684.583,1278.692c3.32,1.917,3.339,5.024.041,6.94a13.205,13.205,0,0,1-11.983,0c-3.32-1.917-3.337-5.025-.039-6.941A13.2,13.2,0,0,1,1684.583,1278.692Z" transform="translate(-1670.14 -1277.254)" fill="url(#linear-gradient-4)"/>
                  </g>
                </g>
              </g>
            </g>
          </g>
        </g>
      </g>
      <g id="그룹_55" data-name="그룹 55" transform="translate(2.569 3.77)">
        <g id="그룹_54" data-name="그룹 54">
          <g id="그룹_53" data-name="그룹 53">
            <g id="그룹_52" data-name="그룹 52">
              <g id="그룹_51" data-name="그룹 51">
                <g id="그룹_50" data-name="그룹 50">
                  <path id="패스_114" data-name="패스 114" d="M1678.83,1234.876v-6.821a6.656,6.656,0,0,1,6.636-6.637h1.273a6.656,6.656,0,0,1,6.636,6.637v6.821c0,1.807-3.633,3.188-7.46,3.206C1682.471,1238.1,1678.83,1236.719,1678.83,1234.876Z" transform="translate(-1678.83 -1221.418)" fill="url(#linear-gradient-5)"/>
                </g>
              </g>
            </g>
          </g>
        </g>
      </g>
      <g id="그룹_61" data-name="그룹 61" transform="translate(3.17 5.207)" opacity="0.27">
        <g id="그룹_60" data-name="그룹 60">
          <g id="그룹_59" data-name="그룹 59">
            <g id="그룹_58" data-name="그룹 58">
              <g id="그룹_57" data-name="그룹 57">
                <g id="그룹_56" data-name="그룹 56">
                  <path id="패스_115" data-name="패스 115" d="M1687.2,1231.814a5.127,5.127,0,0,0-4.015,4.988v6.327c0,1.136,2.072,2.524,4.015,2.787Z" transform="translate(-1683.182 -1231.814)" fill="#fff"/>
                </g>
              </g>
            </g>
          </g>
        </g>
      </g>
      <path id="패스_120" data-name="패스 120" d="M-10157.422-17542.3a4.448,4.448,0,0,1,3.3,2.184,3.266,3.266,0,0,0,.775-1.119,5.491,5.491,0,0,0-2.293-1.51A2.5,2.5,0,0,0-10157.422-17542.3Z" transform="translate(10166.27 17546.783)" opacity="0.55" fill="url(#linear-gradient-6)"/>
      <g id="그룹_90" data-name="그룹 90" transform="translate(8.131 0.001)" style="isolation: isolate">
        <g id="그룹_76" data-name="그룹 76" transform="translate(1.082 0.697)">
          <g id="그룹_75" data-name="그룹 75">
            <g id="그룹_74" data-name="그룹 74">
              <g id="그룹_73" data-name="그룹 73">
                <g id="그룹_72" data-name="그룹 72">
                  <g id="그룹_71" data-name="그룹 71">
                    <path id="패스_117" data-name="패스 117" d="M1728.859,1200.555c0-.018,0-.036,0-.054s0-.028,0-.042,0-.033,0-.049,0-.02,0-.031,0-.036,0-.054,0-.04-.006-.06l0-.021c0-.015,0-.028-.007-.043,0-.031-.01-.061-.016-.091,0-.008,0-.017,0-.025s0-.015-.006-.023a1.736,1.736,0,0,0-.054-.194.8.8,0,0,0-.56-.584l-.638-.122a.8.8,0,0,1,.559.584,1.74,1.74,0,0,1,.054.195c0,.016.007.032.01.048s.011.061.016.092.006.042.009.063,0,.04.006.06,0,.056.006.084,0,.033,0,.049c0,.032,0,.064,0,.1,0,.014,0,.027,0,.04,0,.045,0,.09-.006.135,0,.005,0,.011,0,.016,0,.041-.008.082-.013.123,0,.013,0,.025-.005.038-.005.039-.011.078-.019.116l0,.023c-.009.045-.019.09-.029.135l-.01.039c-.009.032-.017.064-.027.1s-.01.034-.016.051-.018.053-.027.08-.016.044-.024.066-.016.041-.025.061-.03.069-.045.1-.02.042-.03.062l-.025.047-.042.075-.026.044c-.016.026-.033.051-.05.075l-.024.035c-.026.035-.052.069-.081.1a1.352,1.352,0,0,1-.112.116l-.036.032c-.022.019-.045.037-.067.053l-.043.03-.041.025-.054.029-.032.015c-.023.01-.046.018-.069.026l-.016.005a.608.608,0,0,1-.083.018l-.021,0a.6.6,0,0,1-.066,0h-.021a.528.528,0,0,1-.083-.009h0l.638.122h.007a.554.554,0,0,0,.064.008h.064l.034,0,.021,0h.011a.621.621,0,0,0,.068-.015h0l.016-.005c.017-.006.034-.011.052-.018l.017-.008.031-.015.029-.014.025-.015.041-.025.022-.013.021-.017c.022-.016.045-.034.067-.053l.024-.019.013-.013a1.353,1.353,0,0,0,.113-.115c.028-.032.054-.067.08-.1.009-.011.016-.023.024-.035s.034-.049.05-.075l.026-.044q.022-.037.042-.075l.025-.047.016-.03c.005-.011.009-.022.014-.033q.023-.05.045-.1c0-.011.01-.021.014-.033l.01-.029c.008-.022.016-.044.024-.066s.011-.029.016-.043.007-.024.011-.036l.016-.051c0-.012.008-.023.011-.036s.01-.041.016-.061l.01-.038,0-.016c.009-.037.017-.074.024-.111a.038.038,0,0,0,0-.007c0-.008,0-.015,0-.023,0-.026.01-.053.014-.079s0-.025,0-.037l.005-.038c0-.011,0-.022,0-.033,0-.03.006-.059.008-.089,0-.005,0-.01,0-.016v0c0-.037,0-.074.006-.111,0-.007,0-.013,0-.02S1728.859,1200.569,1728.859,1200.555Z" transform="translate(-1726.947 -1199.161)" fill="#ffc365"/>
                  </g>
                </g>
              </g>
            </g>
          </g>
        </g>
        <g id="그룹_82" data-name="그룹 82">
          <g id="그룹_81" data-name="그룹 81">
            <g id="그룹_80" data-name="그룹 80">
              <g id="그룹_79" data-name="그룹 79">
                <g id="그룹_78" data-name="그룹 78">
                  <g id="그룹_77" data-name="그룹 77">
                    <path id="패스_118" data-name="패스 118" d="M1719.9,1197.961c-.02-.056-.037-.115-.053-.174,0-.019-.009-.038-.013-.057-.01-.038-.018-.077-.026-.116s-.015-.087-.022-.131-.01-.06-.013-.09-.006-.057-.009-.086-.007-.08-.009-.121c0-.024,0-.047,0-.071,0-.046,0-.092,0-.138,0-.019,0-.038,0-.057,0-.064,0-.129.009-.194l0-.022q.007-.088.018-.175c0-.018,0-.037.007-.055.008-.055.016-.11.026-.165,0-.011,0-.022.006-.033.012-.065.026-.129.042-.193,0-.019.01-.037.014-.056.012-.046.024-.092.038-.137.007-.025.015-.049.022-.073s.025-.076.039-.114.022-.063.035-.095.023-.058.035-.087q.031-.074.065-.146c.014-.03.028-.06.043-.089s.023-.045.035-.067.04-.072.061-.107.025-.042.038-.062c.023-.037.047-.073.072-.107l.035-.051c.037-.05.075-.1.115-.146s.077-.084.116-.123l.031-.03c.038-.036.076-.07.115-.1l.007-.005c.034-.026.068-.049.1-.071l.059-.036c.026-.015.052-.029.077-.041l.045-.021a1.031,1.031,0,0,1,.1-.037l.023-.008a.882.882,0,0,1,.119-.026l.03,0a.81.81,0,0,1,.094-.005h.029a.8.8,0,0,1,.118.013l-.638-.122-.01,0a.779.779,0,0,0-.091-.011h-.092l-.049.005-.03,0-.016,0a.9.9,0,0,0-.1.022l-.006,0-.022.008c-.025.008-.05.015-.074.025l-.025.011-.045.021-.042.019-.036.022-.059.036-.031.019c-.023.016-.047.034-.07.052l-.007.005c-.028.022-.055.045-.083.069l-.032.031-.031.029c-.039.039-.078.079-.116.123s-.078.1-.115.146c-.012.016-.023.033-.035.05-.025.035-.049.071-.072.108l-.038.062q-.031.053-.061.107l-.035.067-.022.042c-.008.015-.014.031-.021.047-.023.048-.044.1-.064.146-.007.016-.014.031-.021.047s-.01.028-.015.041c-.012.031-.023.063-.035.094s-.016.041-.023.062-.01.035-.016.052-.015.049-.022.073-.011.033-.016.051-.015.058-.022.087-.01.037-.014.055l-.006.023q-.018.079-.034.159l0,.01-.006.032c-.007.038-.014.075-.02.113,0,.018,0,.035-.007.053s0,.036-.007.054,0,.032-.006.048c0,.043-.009.085-.012.127,0,.008,0,.015,0,.022v.006c0,.053-.006.106-.008.159,0,.01,0,.019,0,.029s0,.038,0,.057,0,.052,0,.079,0,.04,0,.06,0,.047,0,.07,0,.029,0,.044.005.051.008.077,0,.057.008.086c0,.01,0,.02,0,.03s.007.04.01.06c.007.044.014.088.022.131,0,.012,0,.024.006.036.006.027.013.053.02.08s.009.038.014.056c.016.059.033.117.053.174a1.15,1.15,0,0,0,.8.835l.638.122A1.149,1.149,0,0,1,1719.9,1197.961Z" transform="translate(-1719.113 -1194.117)" fill="#ffc365"/>
                  </g>
                </g>
              </g>
            </g>
          </g>
        </g>
        <g id="그룹_89" data-name="그룹 89" transform="translate(0.638 0.122)">
          <g id="그룹_88" data-name="그룹 88">
            <g id="그룹_87" data-name="그룹 87">
              <g id="그룹_86" data-name="그룹 86">
                <g id="그룹_85" data-name="그룹 85">
                  <g id="그룹_84" data-name="그룹 84">
                    <g id="그룹_83" data-name="그룹 83">
                      <path id="패스_119" data-name="패스 119" d="M1724.493,1195.505a1,1,0,0,1,1.864.342,3.605,3.605,0,0,1-.606,3.215,1,1,0,0,1-1.864-.341A3.606,3.606,0,0,1,1724.493,1195.505Zm1.068,3.021a2.52,2.52,0,0,0,.425-2.248.7.7,0,0,0-1.3-.238,2.521,2.521,0,0,0-.424,2.248.7.7,0,0,0,1.3.238" transform="translate(-1723.735 -1194.997)" fill="url(#linear-gradient-7)"/>
                    </g>
                  </g>
                </g>
              </g>
            </g>
          </g>
        </g>
      </g>
    </g>
  </g>
</svg>
