<svg id="그룹_12568" data-name="그룹 12568" xmlns="http://www.w3.org/2000/svg" width="17" height="17" viewBox="0 0 17 17">
  <path id="패스_36095" data-name="패스 36095" d="M13.807,14.112H24.394a1.763,1.763,0,0,0,1.763-1.763V1.761A1.762,1.762,0,0,0,24.394,0H13.807a1.762,1.762,0,0,0-1.761,1.761V12.35a1.762,1.762,0,0,0,1.761,1.763m.918-8.085h3.347V2.68h2.057V6.028h3.347V8.085H20.129v3.347H18.072V8.085H14.724Z" transform="translate(-12.046 2.888)" fill="#b5b7c1"/>
  <path id="패스_36096" data-name="패스 36096" d="M22.551,3.737V15.42H24.21V2.843a1.263,1.263,0,0,0-1.264-1.264H10.576V3.238H22.051a.5.5,0,0,1,.5.5" transform="translate(-7.21 -1.579)" fill="#b5b7c1"/>
</svg>
