<svg xmlns="http://www.w3.org/2000/svg" width="22.507" height="30.105" viewBox="0 0 22.507 30.105">
  <g id="그룹_11017" data-name="그룹 11017" transform="translate(-205.246 -273.171)">
    <g id="그룹_11016" data-name="그룹 11016" transform="translate(38.246)">
      <path id="패스_34442" data-name="패스 34442" d="M22.187,8H14.9a.319.319,0,0,1-.319-.319V.319a.319.319,0,0,1,.546-.224L22.414,7.46A.319.319,0,0,1,22.187,8m-6.973-.639h6.209L15.214,1.1Z" transform="translate(167 273.171)" fill="#9396a4"/>
      <path id="패스_34443" data-name="패스 34443" d="M22.185,30.1H.319A.319.319,0,0,1,0,29.78V.32A.319.319,0,0,1,.319,0H14.894a.319.319,0,0,1,.227.1l7.292,7.365a.321.321,0,0,1,.092.225v22.1a.319.319,0,0,1-.319.319h0M.638,29.46H21.866V7.82L14.76.643H.638Z" transform="translate(167 273.171)" fill="#9396a4"/>
      <path id="패스_34447" data-name="패스 34447" d="M0,0H21.867V7.365H0Z" transform="translate(167.32 295.586)" fill="#9396a4"/>
      <path id="패스_34444" data-name="패스 34444" d="M8.834,26.469H7.229v1.2H9.1v.543H6.549V24.3H9.087v.548H7.229v1.079H8.834Z" transform="translate(167 273.171)" fill="#fff"/>
      <path id="패스_34445" data-name="패스 34445" d="M12.537,24.853H11.318v3.362h-.675V24.853H9.435V24.3h3.1Z" transform="translate(167 273.171)" fill="#fff"/>
      <path id="패스_34446" data-name="패스 34446" d="M15.958,26.942a1.409,1.409,0,0,1-.462.977,1.575,1.575,0,0,1-1.071.35,1.52,1.52,0,0,1-.823-.222,1.444,1.444,0,0,1-.549-.629,2.266,2.266,0,0,1-.2-.949V26.1a2.3,2.3,0,0,1,.195-.974,1.471,1.471,0,0,1,.563-.65,1.57,1.57,0,0,1,.847-.228,1.513,1.513,0,0,1,1.042.35,1.463,1.463,0,0,1,.459.992h-.677a.963.963,0,0,0-.245-.608.814.814,0,0,0-.579-.187.8.8,0,0,0-.681.325,1.621,1.621,0,0,0-.243.95v.347a1.71,1.71,0,0,0,.228.967.752.752,0,0,0,.664.333.876.876,0,0,0,.6-.179.937.937,0,0,0,.255-.6Z" transform="translate(167 273.171)" fill="#fff"/>
      <rect id="사각형_6784" data-name="사각형 6784" width="22.507" height="30.105" transform="translate(167 273.171)" fill="none"/>
    </g>
    <circle id="타원_1268" data-name="타원 1268" cx="1.25" cy="1.25" r="1.25" transform="translate(215 285)" fill="#9396a4"/>
    <circle id="타원_1269" data-name="타원 1269" cx="1.25" cy="1.25" r="1.25" transform="translate(210 285)" fill="#9396a4"/>
    <circle id="타원_1270" data-name="타원 1270" cx="1.25" cy="1.25" r="1.25" transform="translate(220 285)" fill="#9396a4"/>
  </g>
</svg>
