<svg xmlns="http://www.w3.org/2000/svg" xmlns:xlink="http://www.w3.org/1999/xlink" width="35.357" height="41.697" viewBox="0 0 35.357 41.697">
  <defs>
    <linearGradient id="linear-gradient" x1="0.5" x2="0.461" y2="1.587" gradientUnits="objectBoundingBox">
      <stop offset="0" stop-color="#f9f9f9"/>
      <stop offset="1" stop-color="#ebebeb"/>
    </linearGradient>
    <linearGradient id="linear-gradient-2" x1="0.301" x2="0.849" y2="1" gradientUnits="objectBoundingBox">
      <stop offset="0" stop-color="#acacac"/>
      <stop offset="0.372" stop-color="#d8d8d8"/>
      <stop offset="0.64" stop-color="#d4d4d4"/>
      <stop offset="1" stop-color="#8f8f8f"/>
    </linearGradient>
  </defs>
  <g id="그룹_5752" data-name="그룹 5752" transform="translate(-1170.334 -2602.143)">
    <ellipse id="타원_741" data-name="타원 741" cx="6.593" cy="2" rx="6.593" ry="2" transform="translate(1187.955 2605.563) rotate(-1)" fill="#fff"/>
    <path id="패스_20755" data-name="패스 20755" d="M-18570.07-18684.861c2.275.555,2.633,1.27,4.373,3.055s1.115,2.455,3.02,2.426-1.275-5.48,5.645-6.387c-.975.785-2.031-.287-3.732,0C-18563.867-18685.23-18568.174-18684.41-18570.07-18684.861Z" transform="translate(19746.51 21288.561)" fill="#d5d5d5"/>
    <ellipse id="타원_742" data-name="타원 742" cx="4" cy="1.5" rx="4" ry="1.5" transform="matrix(0.998, -0.07, 0.07, 0.998, 1174.064, 2606.57)" fill="#fff"/>
    <path id="패스_20757" data-name="패스 20757" d="M-19749.693-18636.5s1.508,1.16,1.973,4.7" transform="translate(20930.928 21240.723)" fill="none" stroke="#0d176c" stroke-linecap="round" stroke-width="0.6"/>
    <path id="패스_20758" data-name="패스 20758" d="M-19749.668-18633.748c.113.352,1.914.348,1.855,2.553" transform="translate(20938.928 21236.891)" fill="none" stroke="#0d176c" stroke-linecap="round" stroke-width="0.6"/>
    <path id="패스_20754" data-name="패스 20754" d="M-19560.338-20220.955c2.295,4.078,3.061,6.627,9.561,6.627s11.088-3.57,11.98-8.285,1.785-7.775,3.951-10.834,3.316-11.6,3.188-15.422-1.932-5.42-5.227-5.48-9.687,0-9.687,0a23.991,23.991,0,0,0-5.352,0c-2.518.35-2.008,1.053-3.7,1.4s-2.676-2.293-5.99,0-4.844,4.207-3.314,11.344c1.143,5.373,1.887,8.7,2.678,12.234C-19561.664-20226.756-19561.424-20222.885-19560.338-20220.955Z" transform="translate(20736.586 22857.418)" fill="url(#linear-gradient)"/>
    <path id="패스_20756" data-name="패스 20756" d="M-19560.338-20220.955c2.295,4.078,3.061,6.627,9.561,6.627s11.088-3.57,11.98-8.285,1.785-7.775,3.951-10.834,3.316-11.6,3.188-15.422-1.932-5.42-5.227-5.48-9.687,0-9.687,0a23.991,23.991,0,0,0-5.352,0c-2.518.35-2.008,1.053-3.7,1.4s-2.676-2.293-5.99,0-4.844,4.207-3.314,11.344c1.143,5.373,1.887,8.7,2.678,12.234C-19561.664-20226.756-19561.424-20222.885-19560.338-20220.955Z" transform="translate(20736.586 22857.418)" fill="none" stroke="#0d176c" stroke-width="1.5"/>
    <path id="패스_20759" data-name="패스 20759" d="M-19561.229-20223.98c2.232,5.463,3.451,7.828,9.6,7.828s10.357-3.373,11.2-7.828a13.711,13.711,0,0,1-1.828.605c-.818.229-.689-.555-.832-1.932-.072-.783.357-5.787.434-11.377s-2.191-7.564-7.035-7.334c-5.133-.148-8.859,2.268-8.941,6.629s.271,10.924,0,12.023c-.293,1.127.068,2.385-.963,2.127A4,4,0,0,1-19561.229-20223.98Z" transform="translate(20737.521 22858.527)" fill="url(#linear-gradient-2)"/>
  </g>
</svg>
