<svg xmlns="http://www.w3.org/2000/svg" xmlns:xlink="http://www.w3.org/1999/xlink" width="35.357" height="41.697" viewBox="0 0 35.357 41.697">
  <defs>
    <linearGradient id="linear-gradient" x1="0.5" x2="0.461" y2="1.587" gradientUnits="objectBoundingBox">
      <stop offset="0" stop-color="#f9f9f9"/>
      <stop offset="1" stop-color="#ebebeb"/>
    </linearGradient>
    <linearGradient id="linear-gradient-2" x1="0.037" x2="0.849" y2="1" gradientUnits="objectBoundingBox">
      <stop offset="0" stop-color="#acacac"/>
      <stop offset="0.531" stop-color="#d8d8d8"/>
      <stop offset="1" stop-color="#b7b7b7"/>
    </linearGradient>
  </defs>
  <g id="그룹_5753" data-name="그룹 5753" transform="translate(-1091.953 -2602.143)">
    <path id="패스_20752" data-name="패스 20752" d="M-19749.668-18633.748c.113.352,1.914.348,1.855,2.553" transform="translate(20860.547 21236.891)" fill="none" stroke="#0d176c" stroke-linecap="round" stroke-width="0.6"/>
    <path id="패스_20748" data-name="패스 20748" d="M-19560.338-20220.955c2.295,4.078,3.061,6.627,9.561,6.627s11.088-3.57,11.98-8.285,1.785-7.775,3.951-10.834,3.316-11.6,3.188-15.422-1.932-5.42-5.227-5.48-9.687,0-9.687,0a23.991,23.991,0,0,0-5.352,0c-2.518.35-2.008,1.053-3.7,1.4s-2.676-2.293-5.99,0-4.844,4.207-3.314,11.344c1.143,5.373,1.887,8.7,2.678,12.234C-19561.664-20226.756-19561.424-20222.885-19560.338-20220.955Z" transform="translate(20658.205 22857.418)" fill="url(#linear-gradient)"/>
    <ellipse id="타원_739" data-name="타원 739" cx="6.593" cy="2" rx="6.593" ry="2" transform="translate(1109.574 2605.563) rotate(-1)" fill="#fff"/>
    <path id="패스_20749" data-name="패스 20749" d="M-18570.07-18684.861c2.275.555,2.633,1.27,4.373,3.055s1.115,2.455,3.02,2.426-1.275-5.48,5.645-6.387c-.975.785-2.031-.287-3.732,0C-18563.867-18685.23-18568.174-18684.41-18570.07-18684.861Z" transform="translate(19668.129 21288.561)" fill="#d5d5d5"/>
    <path id="패스_20750" data-name="패스 20750" d="M-19560.338-20220.955c2.295,4.078,3.061,6.627,9.561,6.627s11.088-3.57,11.98-8.285,1.785-7.775,3.951-10.834,3.316-11.6,3.188-15.422-1.932-5.42-5.227-5.48-9.687,0-9.687,0a23.991,23.991,0,0,0-5.352,0c-2.518.35-2.008,1.053-3.7,1.4s-2.676-2.293-5.99,0-4.844,4.207-3.314,11.344c1.143,5.373,1.887,8.7,2.678,12.234C-19561.664-20226.756-19561.424-20222.885-19560.338-20220.955Z" transform="translate(20658.205 22857.418)" fill="none" stroke="#0d176c" stroke-width="1.5"/>
    <ellipse id="타원_740" data-name="타원 740" cx="4" cy="1.5" rx="4" ry="1.5" transform="matrix(0.998, -0.07, 0.07, 0.998, 1095.684, 2606.57)" fill="#fff"/>
    <path id="패스_20751" data-name="패스 20751" d="M-19749.693-18636.5s1.508,1.16,1.973,4.7" transform="translate(20852.547 21240.723)" fill="none" stroke="#0d176c" stroke-linecap="round" stroke-width="0.6"/>
    <path id="패스_20753" data-name="패스 20753" d="M-19561.229-20223.98c2.232,5.463,3.451,7.828,9.6,7.828s10.357-3.373,11.2-7.828a13.711,13.711,0,0,1-1.828.605c-2.176.607,2.342-5.943-8.623-5.947-10.812.049-6.475,6.643-8.715,6.084A4,4,0,0,1-19561.229-20223.98Z" transform="translate(20659.141 22858.527)" fill="url(#linear-gradient-2)"/>
  </g>
</svg>
