<svg xmlns="http://www.w3.org/2000/svg" width="38.5" height="38.5" viewBox="0 0 38.5 38.5">
  <g id="그룹_5025" data-name="그룹 5025" transform="translate(-645.749 -1197.751)">
    <!-- <path id="패스_2219" data-name="패스 2219" d="M334.51,328.28h0a19,19,0,0,1-19-19h0a19,19,0,0,1,19-19h0a19,19,0,0,1,19,19h0A19,19,0,0,1,334.51,328.28Z" transform="translate(330.488 907.721)" fill="none" stroke="#fff" stroke-miterlimit="10" stroke-width="0.5"/> -->
    <path id="제외_1" data-name="제외 1" d="M15.2,21.461c-.1,0-9.533-.007-11.877-.64A3.826,3.826,0,0,1,.634,18.11,40.5,40.5,0,0,1,0,10.731a40.5,40.5,0,0,1,.635-7.38A3.823,3.823,0,0,1,3.322.641C5.666.007,15.1,0,15.2,0s9.535.007,11.877.641a3.823,3.823,0,0,1,2.688,2.71,40.448,40.448,0,0,1,.635,7.38,40.44,40.44,0,0,1-.635,7.379,3.825,3.825,0,0,1-2.688,2.711C24.734,21.453,15.294,21.461,15.2,21.461ZM12.082,6.2V15.26l7.961-4.529Z" transform="translate(649.799 1206.27)" fill="#fff" stroke="rgba(0,0,0,0)" stroke-miterlimit="10" stroke-width="1"/>
  </g>
</svg>
