<svg xmlns="http://www.w3.org/2000/svg" width="38.5" height="38.5" viewBox="0 0 38.5 38.5">
  <g id="그룹_5021" data-name="그룹 5021" transform="translate(-587.75 -2594.75)">
    <!-- <rect id="사각형_1236" data-name="사각형 1236" width="38" height="38" rx="19" transform="translate(588 2595)" fill="none" stroke="#fff" stroke-miterlimit="10" stroke-width="0.5"/> -->
    <g id="그룹_3017" data-name="그룹 3017" transform="translate(597.99 2603.4)">
      <g id="그룹_3016" data-name="그룹 3016">
        <rect id="사각형_1237" data-name="사각형 1237" width="3.939" height="12.724" transform="translate(0.378 6.362)" fill="#fff"/>
        <path id="패스_2222" data-name="패스 2222" d="M328.2,195.552a2.348,2.348,0,1,0-2.329-2.348A2.339,2.339,0,0,0,328.2,195.552Z" transform="translate(-325.874 -190.857)" fill="#fff"/>
      </g>
      <path id="패스_2223" data-name="패스 2223" d="M336.487,203.263c0-1.788.823-2.854,2.4-2.854,1.449,0,2.145,1.023,2.145,2.854v6.679h3.92v-8.056c0-3.408-1.932-5.056-4.63-5.056a4.435,4.435,0,0,0-3.834,2.1v-1.713h-3.778v12.723h3.778Z" transform="translate(-325.874 -190.857)" fill="#fff"/>
    </g>
  </g>
</svg>
