<svg id="icon_extension_pptx" xmlns="http://www.w3.org/2000/svg" width="22.505" height="30.089" viewBox="0 0 22.505 30.089">
  <path id="패스_32604" data-name="패스 32604" d="M115.184,8h-7.292a.319.319,0,0,1-.319-.319V.32A.319.319,0,0,1,108.119.1l7.292,7.365a.32.32,0,0,1-.227.544m-6.973-.638h6.208L108.211,1.1Z" transform="translate(-92.998 0)" fill="#9396a4"/>
  <path id="패스_32605" data-name="패스 32605" d="M100.433,30.089H78.567a.319.319,0,0,1-.319-.319V.319A.319.319,0,0,1,78.567,0H93.142a.317.317,0,0,1,.226.094l7.293,7.365a.322.322,0,0,1,.091.225V29.77a.319.319,0,0,1-.319.319m-21.548-.638h21.229V7.815L93.009.638H78.886Z" transform="translate(-78.248)" fill="#9396a4"/>
  <rect id="사각형_6044" data-name="사각형 6044" width="21.866" height="7.356" transform="translate(0.32 22.414)" fill="#9396a4"/>
  <path id="패스_32606" data-name="패스 32606" d="M88.333,51.059v1.416h-.77v-3.9H89.1a1.537,1.537,0,0,1,1.05.337,1.19,1.19,0,0,1,.381.911,1.157,1.157,0,0,1-.381.9,1.535,1.535,0,0,1-1.05.338Zm0-.6H89.1a.672.672,0,0,0,.493-.178.716.716,0,0,0,0-.919.639.639,0,0,0-.493-.188h-.771Zm3.549.6v1.416H91.1v-3.9h1.542a1.525,1.525,0,0,1,1.05.337,1.192,1.192,0,0,1,.381.911,1.158,1.158,0,0,1-.381.9,1.522,1.522,0,0,1-1.05.338Zm0-.6h.762a.673.673,0,0,0,.492-.178.715.715,0,0,0,0-.919.626.626,0,0,0-.492-.188h-.762Zm5.435-1.285h-1.1v3.3H95.45v-3.3H94.363v-.6h2.954Zm1.792.779.734-1.379h.9L99.593,50.5l1.216,1.97H99.87l-.743-1.408-.752,1.408h-.9l1.179-1.97L97.5,48.572h.9Z" transform="translate(-82.933 -24.431)" fill="#fefefe"/>
  <path id="패스_32607" data-name="패스 32607" d="M99.632,38.47a.4.4,0,0,1-.348-.2l-1.505-2.683a.4.4,0,0,1,.7-.39l1.5,2.684a.4.4,0,0,1-.347.593m-6.7,0a.4.4,0,0,1-.348-.593l1.505-2.684a.4.4,0,0,1,.7.39l-1.505,2.683a.4.4,0,0,1-.348.2" transform="translate(-85.433 -17.599)" fill="#9396a4"/>
  <path id="패스_32608" data-name="패스 32608" d="M99.681,19.49a.4.4,0,0,1-.4-.4v-.919a.4.4,0,1,1,.8,0v.919a.4.4,0,0,1-.4.4" transform="translate(-88.828 -8.939)" fill="#9396a4"/>
  <path id="패스_32609" data-name="패스 32609" d="M99.587,28.058h-14a.4.4,0,0,1-.4-.4V20.022a.4.4,0,0,1,.4-.4h14a.4.4,0,0,1,.4.4v7.637a.4.4,0,0,1-.4.4m-13.6-.8h13.2V20.421h-13.2Z" transform="translate(-81.739 -9.87)" fill="#9396a4"/>
  <path id="패스_32610" data-name="패스 32610" d="M110.064,28.156a.4.4,0,0,1-.4-.4l-.008-3.7a.4.4,0,0,1,.4-.4h0a.4.4,0,0,1,.4.4l.01,3.7a.4.4,0,0,1-.4.4Z" transform="translate(-94.046 -11.902)" fill="#9396a4"/>
  <path id="패스_32611" data-name="패스 32611" d="M107.27,29.7a.4.4,0,0,1-.4-.4V27.12a.4.4,0,0,1,.8,0V29.3a.4.4,0,0,1-.4.4" transform="translate(-92.644 -13.441)" fill="#9396a4"/>
  <path id="패스_32612" data-name="패스 32612" d="M104.466,30.8a.4.4,0,0,1-.4-.4V29.31a.4.4,0,0,1,.8,0V30.4a.4.4,0,0,1-.4.4" transform="translate(-91.234 -14.542)" fill="#9396a4"/>
  <path id="패스_32613" data-name="패스 32613" d="M93.488,24.46H89.233a.4.4,0,0,1,0-.8h4.255a.4.4,0,1,1,0,.8" transform="translate(-83.573 -11.903)" fill="#9396a4"/>
  <path id="패스_32614" data-name="패스 32614" d="M91.834,28.18h-2.6a.4.4,0,0,1,0-.8h2.6a.4.4,0,0,1,0,.8" transform="translate(-83.573 -13.772)" fill="#9396a4"/>
  <path id="패스_32615" data-name="패스 32615" d="M89.234,31.889a.4.4,0,0,1,0-.8l5.258-.009h0a.4.4,0,0,1,0,.8l-5.258.009Z" transform="translate(-83.573 -15.634)" fill="#9396a4"/>
</svg>
