<svg width="38" height="41" viewBox="0 0 38 41" fill="none" xmlns="http://www.w3.org/2000/svg">
<path d="M32.7648 29.7727C31.7853 28.778 31.0158 27.4104 30.4561 26.0427C29.4416 23.6494 28.9869 21.1006 28.9869 18.5518V12.6461C28.9869 7.76607 24.5094 3.78748 19.0175 3.78748C13.4907 3.78748 9.01321 7.76607 9.01321 12.6771V18.5829C9.01321 21.1316 8.55847 23.6804 7.54404 26.0738C6.98436 27.4414 6.2148 28.8091 5.23535 29.8037" stroke="#242F35" stroke-width="1.5" stroke-miterlimit="10" stroke-linecap="round"/>
<path d="M18.9999 6.57483C14.9234 6.57483 11.5881 9.36229 11.5881 12.7692V18.6538" stroke="#242F35" stroke-width="1.5" stroke-miterlimit="10" stroke-linecap="round"/>
<path d="M11.6252 29.8037H3.69126C2.2233 29.8037 1 30.8294 1 32.1266C1 33.3936 2.18835 34.4495 3.69126 34.4495H34.3087C35.7767 34.4495 37 33.4238 37 32.1266C37 30.8596 35.8117 29.8037 34.3087 29.8037H26.3398" stroke="#242F35" stroke-width="1.5" stroke-miterlimit="10" stroke-linecap="round"/>
<mask id="path-4-inside-1" fill="white">
<path d="M12 34.3333C12 38.0129 15.1364 40.9999 19 40.9999C22.8636 40.9999 26 38.0129 26 34.3333"/>
</mask>
<path d="M13.5 34.3333C13.5 33.5048 12.8284 32.8333 12 32.8333C11.1716 32.8333 10.5 33.5048 10.5 34.3333H13.5ZM27.5 34.3333C27.5 33.5048 26.8284 32.8333 26 32.8333C25.1716 32.8333 24.5 33.5048 24.5 34.3333H27.5ZM10.5 34.3333C10.5 38.9095 14.3777 42.4999 19 42.4999V39.4999C15.895 39.4999 13.5 37.1164 13.5 34.3333H10.5ZM19 42.4999C23.6223 42.4999 27.5 38.9095 27.5 34.3333H24.5C24.5 37.1164 22.105 39.4999 19 39.4999V42.4999Z" fill="#242F35" mask="url(#path-4-inside-1)"/>
<path d="M15 36C15 37.6558 17.0682 38.5 19 38.5C20.9318 38.5 23 37.6558 23 36" fill="#CAE1EF"/>
<path d="M22.1764 3.78746C22.1764 2.22376 20.7431 1 19 1C17.218 1 15.8235 2.25775 15.8235 3.78746" stroke="#242F35" stroke-width="1.5" stroke-miterlimit="10" stroke-linecap="round"/>
</svg>
