<svg id="그룹_12790" data-name="그룹 12790" xmlns="http://www.w3.org/2000/svg" width="15" height="17" viewBox="0 0 15 17">
  <path id="패스_34752" data-name="패스 34752" d="M1965.739,2051.646v-.462a.379.379,0,0,1,.378-.379h1.767a.379.379,0,0,1,.379.379v.462h.841v-.462a1.222,1.222,0,0,0-1.22-1.221h-1.767a1.222,1.222,0,0,0-1.22,1.221v.462Z" transform="translate(-1959.501 -2049.963)" fill="#b5b7c1"/>
  <path id="패스_34753" data-name="패스 34753" d="M1647.368,2482.8l-1.182,9.708a.95.95,0,0,1-.961.812h-7.156a.951.951,0,0,1-.961-.812l-1.182-9.708h-.8c-.033,0-.066,0-.1,0l1.194,9.809a1.823,1.823,0,0,0,1.844,1.557h7.156a1.823,1.823,0,0,0,1.844-1.557l1.194-9.809c-.033,0-.065,0-.1,0Z" transform="translate(-1634.147 -2477.159)" fill="#b5b7c1"/>
  <path id="패스_34754" data-name="패스 34754" d="M1577.845,2183.254H1567.2a2.134,2.134,0,0,0-2.18,2.079v.73a1,1,0,0,0,.927.974c.033,0,.065,0,.1,0H1579c.033,0,.066,0,.1,0a1,1,0,0,0,.927-.974v-.73A2.134,2.134,0,0,0,1577.845,2183.254Zm.91,2.946H1566.05a.14.14,0,0,1-.143-.136v-.73a1.269,1.269,0,0,1,1.3-1.238h10.64a1.268,1.268,0,0,1,1.3,1.238v.73a.139.139,0,0,1-.143.136Z" transform="translate(-1565.025 -2181.57)" fill="#b5b7c1"/>
  <path id="패스_34755" data-name="패스 34755" d="M2098.608,2590.7a.421.421,0,0,0,.421-.421v-6.733a.421.421,0,0,0-.842,0v6.733A.421.421,0,0,0,2098.608,2590.7Z" transform="translate(-2091.107 -2576.224)" fill="#b5b7c1"/>
  <path id="패스_34756" data-name="패스 34756" d="M2298.838,2592.688a.421.421,0,0,0,.47-.365l.833-6.681a.421.421,0,1,0-.835-.1l-.833,6.681A.421.421,0,0,0,2298.838,2592.688Z" transform="translate(-2288.699 -2578.287)" fill="#b5b7c1"/>
  <path id="패스_34757" data-name="패스 34757" d="M1832.789,2592.323a.421.421,0,0,0,.835-.1l-.833-6.681a.421.421,0,1,0-.835.1Z" transform="translate(-1828.397 -2578.287)" fill="#b5b7c1"/>
</svg>
