<svg xmlns="http://www.w3.org/2000/svg" width="17.001" height="17" viewBox="0 0 17.001 17">
  <g id="그룹_12580" data-name="그룹 12580" transform="translate(0.001)">
    <path id="패스_36093" data-name="패스 36093" d="M2.756,14.209H14.292a1.288,1.288,0,0,0,1.288-1.288V1.385A1.288,1.288,0,0,0,14.292.1H2.756A1.286,1.286,0,0,0,1.47,1.385V12.921a1.287,1.287,0,0,0,1.286,1.288M4.148,6.125H12.9V8.182H4.148Z" transform="translate(-1.47 2.791)" fill="#b5b7c1"/>
    <path id="패스_36094" data-name="패스 36094" d="M11.975,3.836V15.519h1.659V2.942A1.263,1.263,0,0,0,12.37,1.678H0V3.337H11.475a.5.5,0,0,1,.5.5" transform="translate(3.366 -1.678)" fill="#b5b7c1"/>
  </g>
</svg>
