<svg id="icon_extension_zip" xmlns="http://www.w3.org/2000/svg" width="22.504" height="30.169" viewBox="0 0 22.504 30.169">
  <path id="패스_32636" data-name="패스 32636" d="M193.432,101.85H186.14a.319.319,0,0,1-.319-.319V94.166a.319.319,0,0,1,.546-.225l7.292,7.365a.319.319,0,0,1-.227.543m-6.973-.638h6.208l-6.208-6.27Z" transform="translate(-171.247 -93.768)" fill="#9396a4"/>
  <path id="패스_32637" data-name="패스 32637" d="M178.682,123.936H156.816a.318.318,0,0,1-.319-.319V94.166a.318.318,0,0,1,.319-.319h14.575a.317.317,0,0,1,.226.094l7.293,7.365a.318.318,0,0,1,.091.224v22.086a.319.319,0,0,1-.319.319m-21.548-.638h21.229V101.662l-7.105-7.177H157.134Z" transform="translate(-156.497 -93.767)" fill="#9396a4"/>
  <rect id="사각형_6052" data-name="사각형 6052" width="21.866" height="7.355" transform="translate(0.319 22.494)" fill="#9396a4"/>
  <path id="패스_32638" data-name="패스 32638" d="M172.093,145.721h1.9v.6h-2.833v-.413l1.839-2.89h-1.83v-.6h2.777v.394Zm3.251.6h-.78v-3.9h.78Zm1.543-1.416v1.416h-.772v-3.9h1.543a1.506,1.506,0,0,1,1.039.338,1.161,1.161,0,0,1,.392.91,1.13,1.13,0,0,1-.392.9,1.506,1.506,0,0,1-1.039.338Zm0-.6h.771a.6.6,0,0,0,.65-.638.686.686,0,0,0-.158-.459.64.64,0,0,0-.492-.188h-.771Z" transform="translate(-163.869 -118.199)" fill="#fefefe"/>
  <path id="패스_32639" data-name="패스 32639" d="M174.207,99.657h-3.642a.4.4,0,0,1,0-.8h3.642a.4.4,0,0,1,0,.8" transform="translate(-163.373 -96.288)" fill="#9396a4"/>
  <path id="패스_32640" data-name="패스 32640" d="M174.207,103.772h-3.642a.4.4,0,0,1,0-.8h3.642a.4.4,0,0,1,0,.8" transform="translate(-163.373 -98.358)" fill="#9396a4"/>
  <path id="패스_32641" data-name="패스 32641" d="M174.229,107.714a.4.4,0,0,1-.4-.4V94.086a.4.4,0,0,1,.8,0v13.229a.4.4,0,0,1-.4.4" transform="translate(-165.215 -93.687)" fill="#9396a4"/>
  <path id="패스_32642" data-name="패스 32642" d="M174.207,107.907h-3.642a.4.4,0,0,1,0-.8h3.642a.4.4,0,0,1,0,.8" transform="translate(-163.373 -100.437)" fill="#9396a4"/>
  <path id="패스_32643" data-name="패스 32643" d="M174.207,112.022h-3.642a.4.4,0,0,1,0-.8h3.642a.4.4,0,0,1,0,.8" transform="translate(-163.373 -102.508)" fill="#9396a4"/>
  <path id="패스_32644" data-name="패스 32644" d="M174.207,116.136h-3.642a.4.4,0,0,1,0-.8h3.642a.4.4,0,0,1,0,.8" transform="translate(-163.373 -104.577)" fill="#9396a4"/>
  <path id="패스_32645" data-name="패스 32645" d="M171.666,128.514a3.076,3.076,0,0,1-2.267-1.024,2.5,2.5,0,0,1-.647-1.975l.557-4.858a.4.4,0,0,1,.4-.353h3.92a.4.4,0,0,1,.4.353l.558,4.86a2.5,2.5,0,0,1-.648,1.973,3.075,3.075,0,0,1-2.266,1.023m-1.6-7.412-.517,4.506a1.717,1.717,0,0,0,.451,1.353,2.225,2.225,0,0,0,3.34,0,1.718,1.718,0,0,0,.452-1.351l-.517-4.508Z" transform="translate(-162.653 -107.075)" fill="#9396a4"/>
  <path id="패스_32646" data-name="패스 32646" d="M173.052,130.84a1.643,1.643,0,0,1-1.236-.571,1.292,1.292,0,0,1-.31-1.055l.15-.858a.4.4,0,0,1,.393-.33h2.006a.4.4,0,0,1,.393.33l.149.854a1.293,1.293,0,0,1-.309,1.059,1.642,1.642,0,0,1-1.235.571m-.669-2.017-.091.523a.511.511,0,0,0,.132.406.823.823,0,0,0,1.255,0,.5.5,0,0,0,.13-.41l-.09-.519Z" transform="translate(-164.038 -110.959)" fill="#9396a4"/>
</svg>
