<svg xmlns="http://www.w3.org/2000/svg" width="21.152" height="20.001" viewBox="0 0 21.152 20.001">
  <path id="패스_1569" data-name="패스 1569" d="M583.116,301.746H580.5v-1.451a.452.452,0,0,0-.9,0v1.451h-9.586v-1.451a.452.452,0,0,0-.9,0v1.451h-2.62a2.262,2.262,0,0,0-2.259,2.259v13.58a2.262,2.262,0,0,0,2.259,2.259h13.346a.454.454,0,0,0,.32-.132l5.094-5.094a.468.468,0,0,0,.127-.292c0-.01.005-10.321.005-10.321A2.262,2.262,0,0,0,583.116,301.746Zm-16.633.9h2.62v1.111a1.991,1.991,0,1,0,.9,0V302.65h9.586v1.111a1.991,1.991,0,1,0,.9,0V302.65h2.62a1.357,1.357,0,0,1,1.356,1.356v4.479H565.127v-4.479A1.357,1.357,0,0,1,566.482,302.65Zm3.072,3.046a.452.452,0,0,0,.452-.452v-.534a1.088,1.088,0,1,1-.9,0v.534A.452.452,0,0,0,569.554,305.7Zm10.49,0a.452.452,0,0,0,.452-.452v-.534a1.087,1.087,0,1,1-.9,0v.534A.452.452,0,0,0,580.044,305.7Zm-14.917,11.89v-8.2h19.344v4.459h-2.835a2.262,2.262,0,0,0-2.259,2.259v2.835H566.483A1.357,1.357,0,0,1,565.127,317.585Zm15.154.716v-2.2a1.357,1.357,0,0,1,1.356-1.356h2.2Z" transform="translate(-564.223 -299.843)" fill="#bababa"/>
</svg>
