<svg xmlns="http://www.w3.org/2000/svg" xmlns:xlink="http://www.w3.org/1999/xlink" width="38.639" height="50.262" viewBox="0 0 38.639 50.262">
  <defs>
    <linearGradient id="linear-gradient" x1="0.5" x2="0.5" y2="1.374" gradientUnits="objectBoundingBox">
      <stop offset="0" stop-color="#f9f9f9"/>
      <stop offset="1" stop-color="#ebebeb"/>
    </linearGradient>
  </defs>
  <g id="그룹_5749" data-name="그룹 5749" transform="translate(-575.945 -2523.057)">
    <path id="패스_20695" data-name="패스 20695" d="M0,0S7.274,2.793,7.975,6.252c.39,1.938.781,6.554,2.961,8.771s4.586,0,7,0c5.488,0,6.724-4.085,8.312-7.941S32.521,1.621,33.6,0Z" transform="translate(613.799 2573.318) rotate(180)" fill="#f5b4b4"/>
    <g id="그룹_5056" data-name="그룹 5056" transform="translate(644.012 -30.602) rotate(11)">
      <g id="그룹_5053" data-name="그룹 5053" transform="translate(427.969 2518.994)">
        <path id="합치기_34" data-name="합치기 34" d="M13.676,34.027A10.1,10.1,0,0,1,9.4,31.806L4.962,27.281A82.8,82.8,0,0,1,.76,14.2c-1.711-7.395,0-9.955,0-9.955L6.368.269s2.457-.906,3.995.6c.306.3.639.607.975.905.44-.483,3.785-3.762,9.179,1.477l-3.072.931,1.348.059,3.913-1.9s2.781-.936,4.733-.05c.239-.146.418.023.731.439a3.243,3.243,0,0,1,1.6,1.509,5.658,5.658,0,0,1,.809,1.79c.641,1.74.223,4.19-.254,8.164a21.392,21.392,0,0,1-6.456,13.731c-4.134,4.22-7.577,6.126-9.733,6.126A3.24,3.24,0,0,1,13.676,34.027Zm.418-29.985.931.041L11.651,2.055C12.9,3.136,14.094,4.042,14.094,4.042Z" transform="translate(0.078 0.016)" fill="url(#linear-gradient)"/>
        <path id="패스_20689" data-name="패스 20689" d="M3.569,0C5.594.079,7.278,1.281,7.332,2.687S5.789,5.174,3.764,5.1.055,3.822,0,2.415,1.545-.072,3.569,0Z" transform="translate(5.598 2.563) rotate(8)" fill="#fff"/>
        <path id="패스_20690" data-name="패스 20690" d="M1.441,0a1.513,1.513,0,0,1,1.529,1.3,1.262,1.262,0,0,1-1.44,1.186A1.513,1.513,0,0,1,0,1.187,1.262,1.262,0,0,1,1.441,0Z" transform="translate(11.218 5.801) rotate(17)" fill="#fff"/>
        <path id="패스_20691" data-name="패스 20691" d="M2.13.008C3.262-.066,4.145.4,4.1,1.039s-1,1.225-2.128,1.3S-.042,1.951,0,1.308,1,.082,2.13.008Z" transform="translate(21.691 6.061) rotate(-50)" fill="#fff"/>
        <path id="패스_20667" data-name="패스 20667" d="M-18574.166-18688.389c1.58,1.527,7.729,3.178,10.236,7.479s1.424,7.139,2.768,7.105c.914-.055,1.781-2.311.777-9.682-.3-.988.873-2.217,1.955-2.971-1.441.389-3.684,2.348-4.465,1.162a4.767,4.767,0,0,0-3.828-1.385c-.7.055-1.324,1.008-2.094.875C-18570.777-18686.141-18571.293-18686.861-18574.166-18688.389Z" transform="translate(18582.617 18688.389)" fill="#d5d5d5"/>
        <g id="그룹_5035" data-name="그룹 5035" transform="translate(0 0.018)">
          <path id="패스_20659" data-name="패스 20659" d="M-19768.936-18634.143c-1.1,5.4-2.133,7.934-4.834,11.949a19.583,19.583,0,0,1-7.844,6.828c-3.416,1.705-4.6,1.277-6.074,0s-3.51-.734-6.256-5.953-3.1-6.039-4.807-13.43.289-9.936,1.621-11.437,5.939-3.354,9.191-1.1,3.652,2.586,6.258,2.883,2.7-.293,3.818-1.01c.684-.445,2.521-2.811,6.066-.912S-19767.84-18639.543-19768.936-18634.143Z" transform="translate(19799.219 18648.525)" fill="none" stroke="#0d176c" stroke-linecap="round" stroke-linejoin="round" stroke-width="1.5"/>
          <path id="패스_20660" data-name="패스 20660" d="M-19761.4-18646.592s1.8-4,9.877,2.072" transform="translate(19772.777 18647.951)" fill="none" stroke="#0d176c" stroke-linecap="round" stroke-width="1"/>
          <path id="패스_20661" data-name="패스 20661" d="M-19750.246-18635.32a15.917,15.917,0,0,1,2.975,10.441" transform="translate(19768.83 18639.27)" fill="none" stroke="#0d176c" stroke-linecap="round" stroke-width="0.6"/>
        </g>
      </g>
    </g>
  </g>
</svg>
