<svg xmlns="http://www.w3.org/2000/svg" width="22" height="22" viewBox="0 0 22 22">
  <path id="합치기_13" data-name="합치기 13" d="M1.367,21a1.387,1.387,0,0,1-.957-.378.369.369,0,0,1-.085-.085A.3.3,0,0,1,.3,20.5a1.29,1.29,0,0,1-.3-.815V7.848A1.271,1.271,0,0,1,.495,6.842L1.821,5.778V.44A.452.452,0,0,1,2.28,0H18.714a.449.449,0,0,1,.459.44V5.778l1.337,1.064a1.279,1.279,0,0,1,.424.6.347.347,0,0,1,.014.051A1.189,1.189,0,0,1,21,7.848V19.685a1.29,1.29,0,0,1-.3.815.276.276,0,0,1-.027.038.55.55,0,0,1-.085.081,1.383,1.383,0,0,1-.96.382Zm17.979-.875-8.1-5.881a1.272,1.272,0,0,0-1.5,0l-8.1,5.881ZM.913,19.567,8.575,14,.913,8.442Zm19.173,0V8.446L12.428,14ZM9.335,13.457a2.194,2.194,0,0,1,2.332,0L18.26,8.673V.875H2.74v7.8ZM19.173,8.01l.719-.522-.719-.575Zm-17.352,0V6.917l-.714.571ZM10.046,9.19V7H7.76a.438.438,0,1,1,0-.875h2.286V3.94a.457.457,0,0,1,.913,0V6.125h2.28a.438.438,0,1,1,0,.875h-2.28V9.19a.457.457,0,0,1-.913,0Z" transform="translate(0.5 0.5)" fill="#fff" stroke="rgba(0,0,0,0)" stroke-miterlimit="10" stroke-width="1"/>
</svg>
