<svg id="icon_extension_mp4" xmlns="http://www.w3.org/2000/svg" width="22.504" height="30.098" viewBox="0 0 22.504 30.098">
  <path id="패스_32696" data-name="패스 32696" d="M271.68,195.358h-7.292a.319.319,0,0,1-.319-.319v-7.365a.319.319,0,0,1,.546-.225l7.292,7.365a.319.319,0,0,1-.227.543m-6.973-.638h6.208l-6.208-6.27Z" transform="translate(-249.495 -187.354)" fill="#9396a4"/>
  <path id="패스_32697" data-name="패스 32697" d="M256.931,217.452H235.064a.319.319,0,0,1-.319-.319v-29.46a.319.319,0,0,1,.319-.319h14.575a.316.316,0,0,1,.226.094l7.293,7.366a.319.319,0,0,1,.091.224v22.1a.318.318,0,0,1-.319.319m-21.547-.639h21.229V195.169l-7.106-7.177H235.383Z" transform="translate(-234.745 -187.354)" fill="#9396a4"/>
  <rect id="사각형_6068" data-name="사각형 6068" width="21.866" height="7.365" transform="translate(0.32 22.415)" fill="#9396a4"/>
  <path id="패스_32698" data-name="패스 32698" d="M249,235.925l.985,2.881H250l.995-2.881h1.012v3.9h-.771v-1.164l.074-1.726h-.018l-1.04,2.89h-.52l-1.031-2.88h-.01l.075,1.716v1.164h-.781v-3.9Zm4.515,2.487v1.416h-.78v-3.9h1.542a1.5,1.5,0,0,1,1.05.347,1.255,1.255,0,0,1,0,1.8,1.544,1.544,0,0,1-1.05.338Zm0-.6h.762a.668.668,0,0,0,.492-.179.714.714,0,0,0,0-.919.642.642,0,0,0-.492-.187h-.762Zm4.942.572h.436v.6h-.436v.844h-.781v-.844H256.1l-.037-.469,1.607-2.59h.781Zm-1.663,0h.882v-1.407l-.009-.01-.065.113Z" transform="translate(-241.403 -211.784)" fill="#fefefe"/>
  <path id="패스_32699" data-name="패스 32699" d="M251.171,216.181a6.2,6.2,0,1,1,6.14-6.2,6.176,6.176,0,0,1-6.14,6.2m0-11.6a5.4,5.4,0,1,0,5.342,5.4,5.377,5.377,0,0,0-5.342-5.4" transform="translate(-239.918 -195.619)" fill="#9396a4"/>
  <path id="패스_32700" data-name="패스 32700" d="M253.508,216.217a.773.773,0,0,1-.668-.391.714.714,0,0,1-.108-.386v-5.253a.766.766,0,0,1,1.2-.642l4.466,2.606a.772.772,0,0,1,.276,1.048.752.752,0,0,1-.263.274l-4.517,2.642a.764.764,0,0,1-.381.1m.021-5.982V215.4l4.422-2.584Z" transform="translate(-243.792 -198.448)" fill="#9396a4"/>
</svg>
