<svg xmlns="http://www.w3.org/2000/svg" xmlns:xlink="http://www.w3.org/1999/xlink" width="33.418" height="33.418" viewBox="0 0 33.418 33.418">
  <defs>
    <linearGradient id="linear-gradient" x1="0.783" y1="0.9" x2="0" y2="-0.321" gradientUnits="objectBoundingBox">
      <stop offset="0" stop-color="#83d4f7"/>
      <stop offset="1" stop-color="#b3eaf7"/>
    </linearGradient>
  </defs>
  <g id="그룹_1170" data-name="그룹 1170" transform="translate(1129.709 22443.709)">
    <circle id="타원_10" data-name="타원 10" cx="16.709" cy="16.709" r="16.709" transform="translate(-1129.709 -22443.709)" fill="url(#linear-gradient)"/>
    <g id="그룹_8" data-name="그룹 8" transform="translate(-1122.672 -22437.377)">
      <path id="패스_106" data-name="패스 106" d="M429.05,412.364c.024-.293.525,15.122,3.944,13.767,2.681-1.062,6.2-6.061,6.2-6.061Z" transform="translate(-428.978 -405.461)" fill="#fff" opacity="0.7"/>
      <path id="패스_107" data-name="패스 107" d="M473.608,412.364c-.024-.293-.525,15.122-3.944,13.767-2.681-1.062-6.2-6.061-6.2-6.061Z" transform="translate(-454.266 -405.461)" fill="#fff" opacity="0.7"/>
      <path id="패스_108" data-name="패스 108" d="M448.08,393.253c0,2.058-1.89,3.816-4.184,5.228a43.172,43.172,0,0,1-5.392,2.9,44.349,44.349,0,0,1-5.541-2.9c-2.294-1.413-4.184-3.17-4.184-5.228a6.9,6.9,0,0,1,6.9-6.9,2.924,2.924,0,0,1,1.709.693,1.719,1.719,0,0,0,2.077,0,2.924,2.924,0,0,1,1.709-.693A6.9,6.9,0,0,1,448.08,393.253Z" transform="translate(-428.78 -386.35)" fill="#fff"/>
    </g>
  </g>
</svg>
