<svg id="icon_extension_pdf" xmlns="http://www.w3.org/2000/svg" width="22.504" height="30.099" viewBox="0 0 22.504 30.099">
  <path id="패스_32663" data-name="패스 32663" d="M193.432,382.412H186.14a.319.319,0,0,1-.319-.319v-7.365a.319.319,0,0,1,.546-.224l7.292,7.365a.319.319,0,0,1-.227.544m-6.973-.639h6.208l-6.208-6.269Z" transform="translate(-171.247 -374.408)" fill="#9396a4"/>
  <path id="패스_32664" data-name="패스 32664" d="M178.682,404.507H156.816a.318.318,0,0,1-.319-.319V374.727a.318.318,0,0,1,.319-.319h14.575a.32.32,0,0,1,.226.095l7.292,7.365a.318.318,0,0,1,.092.225v22.1a.319.319,0,0,1-.319.319m-21.548-.639h21.229V382.223l-7.106-7.177H157.134Z" transform="translate(-156.497 -374.408)" fill="#9396a4"/>
  <rect id="사각형_6058" data-name="사각형 6058" width="21.866" height="7.365" transform="translate(0.319 22.415)" fill="#9396a4"/>
  <path id="패스_32665" data-name="패스 32665" d="M170.077,425.466v1.417h-.771v-3.9h1.542a1.5,1.5,0,0,1,1.05.347,1.255,1.255,0,0,1,0,1.8,1.54,1.54,0,0,1-1.05.337Zm0-.6h.771a.636.636,0,0,0,.493-.178.642.642,0,0,0,.167-.449.677.677,0,0,0-.167-.47.636.636,0,0,0-.493-.178h-.771Zm2.768,2.017v-3.9h1.328a1.566,1.566,0,0,1,1.625,1.633v.647a1.573,1.573,0,0,1-.455,1.173,1.606,1.606,0,0,1-1.17.45Zm.78-3.294v2.693h.511a.8.8,0,0,0,.65-.281,1.123,1.123,0,0,0,.242-.741V424.6a1.1,1.1,0,0,0-.242-.732.8.8,0,0,0-.65-.281Zm5.183,1.679h-1.625v1.614h-.771v-3.9h2.666v.609h-1.895v1.07h1.625Z" transform="translate(-162.94 -398.839)" fill="#fefefe"/>
  <path id="패스_32666" data-name="패스 32666" d="M176.948,393.78a9.607,9.607,0,0,0-1.607.178,15.6,15.6,0,0,1-2.434-3.659c.642-2.711.325-3.106.186-3.285-.159-.187-.372-.506-.613-.506a2.357,2.357,0,0,0-.483.084.949.949,0,0,0-.539.582c-.344.807.121,2.167.6,3.219a33.4,33.4,0,0,1-1.811,5.188c-1.821.844-2.777,1.67-2.861,2.449a1.149,1.149,0,0,0,.529,1.088.758.758,0,0,0,.465.159c.418,0,.836-.328,1.329-1.022a14.263,14.263,0,0,0,1.142-2.055,22.333,22.333,0,0,1,4.217-1.36,3.2,3.2,0,0,0,2.016,1.1,1.286,1.286,0,0,0,1.068-.572,1.008,1.008,0,0,0,.186-1.041c-.186-.366-.642-.545-1.394-.545m-8.556,4.682c-.224-.178-.213-.29-.2-.338.028-.272.446-.741,1.469-1.323-.781,1.445-1.2,1.634-1.264,1.661m3.92-11.08c.018-.01.5.535.047,1.557a1.179,1.179,0,0,1-.047-1.557m-.984,7.74a33.69,33.69,0,0,0,1.272-3.65,16.564,16.564,0,0,0,1.83,2.673,24.77,24.77,0,0,0-3.1.977m6.167-.225a.711.711,0,0,1-.576.206c-.26,0-.353-.15-.743-.45a6.029,6.029,0,0,1,.863-.056,1.019,1.019,0,0,1,.567.094.652.652,0,0,1-.112.207" transform="translate(-161.971 -380.495)" fill="#9396a4"/>
</svg>
