<svg width="46" height="44" viewBox="0 0 46 44" fill="none" xmlns="http://www.w3.org/2000/svg">
<path d="M30.8944 33.549H37C35.9344 28.4098 31.5856 21.1292 24.8464 19.5018C27.208 17.7316 28.7632 14.9051 28.7632 11.7074C28.7632 6.33977 24.3856 2 18.9712 2C13.5568 2 9.1792 6.33977 9.1792 11.7074C9.1792 14.9051 10.7344 17.7316 13.1248 19.5018C6.3568 21.1292 1.8352 28.2956 1 33.549H6.9904" stroke="#242F35" stroke-width="1.5" stroke-miterlimit="10" stroke-linecap="round" stroke-linejoin="round"/>
<path d="M23.6081 33.2919C23.6081 35.833 21.5345 37.8601 19.0001 37.8601C16.4369 37.8601 14.3921 35.8044 14.3921 33.2919C14.3921 30.7794 16.4657 28.7238 19.0001 28.7238C21.5633 28.7238 23.6081 30.7794 23.6081 33.2919Z" stroke="#242F35" stroke-width="1.5" stroke-miterlimit="10" stroke-linecap="round" stroke-linejoin="round"/>
<path d="M18.9999 30.0371C18.5967 30.0371 18.1935 30.1228 17.8191 30.2655C19.0575 30.7223 19.9215 31.9215 19.9215 33.2919C19.9215 34.6624 19.0575 35.8615 17.8191 36.3183C18.1935 36.4611 18.5679 36.5468 18.9999 36.5468C20.8143 36.5468 22.2831 35.0907 22.2831 33.2919C22.2831 31.4932 20.8143 30.0371 18.9999 30.0371Z" fill="#CAE1EF"/>
<path d="M27.6977 33.349C27.6977 32.5495 27.0353 31.8929 26.2289 31.8929H26.0849C25.8833 30.9792 25.5377 30.1513 25.0481 29.3804L25.1633 29.2662C25.7393 28.6952 25.7393 27.7815 25.1633 27.2105C24.5873 26.6395 23.6657 26.6395 23.0897 27.2105L22.9745 27.3247C22.2257 26.8393 21.3617 26.4682 20.4401 26.2969V26.1541C20.4401 25.3547 19.7777 24.698 18.9713 24.698C18.1649 24.698 17.5025 25.3547 17.5025 26.1541V26.2969C16.5809 26.4967 15.7457 26.8393 14.9681 27.3247L14.8529 27.2105C14.2769 26.6395 13.3553 26.6395 12.7793 27.2105C12.2033 27.7815 12.2033 28.6952 12.7793 29.2662L12.8945 29.3804C12.4049 30.1227 12.0305 30.9792 11.8577 31.8929H11.7137C10.9073 31.8929 10.2449 32.5495 10.2449 33.349C10.2449 34.1484 10.9073 34.8051 11.7137 34.8051H11.8577C12.0593 35.7187 12.4049 36.5467 12.8945 37.3176L12.7793 37.4318C12.2033 38.0028 12.2033 38.9164 12.7793 39.4875C13.3553 40.0585 14.2769 40.0585 14.8529 39.4875L14.9681 39.3733C15.7169 39.8586 16.5809 40.2298 17.5025 40.4011V40.5439C17.5025 41.3433 18.1649 42 18.9713 42C19.7777 42 20.4401 41.3433 20.4401 40.5439V40.4011C21.3617 40.2012 22.1969 39.8586 22.9745 39.3733L23.0897 39.4875C23.6657 40.0585 24.5873 40.0585 25.1633 39.4875C25.7393 38.9164 25.7393 38.0028 25.1633 37.4318L25.0481 37.3176C25.5377 36.5752 25.9121 35.7187 26.0849 34.8051H26.2289C27.0641 34.8051 27.6977 34.1484 27.6977 33.349Z" stroke="#242F35" stroke-width="1.5" stroke-miterlimit="10" stroke-linecap="round" stroke-linejoin="round"/>
</svg>
