<svg xmlns="http://www.w3.org/2000/svg" xmlns:xlink="http://www.w3.org/1999/xlink" width="17" height="16" viewBox="0 0 17 16">
  <defs>
    <clipPath id="clip-calendar_02">
      <rect width="17" height="16"/>
    </clipPath>
  </defs>
  <g id="calendar_02" clip-path="url(#clip-calendar_02)">
    <g id="그룹_1562" data-name="그룹 1562" transform="translate(12024.883 13153)">
      <path id="패스_1780" data-name="패스 1780" d="M579.1,301.341h-2.062V300.2a.356.356,0,0,0-.711,0v1.142h-7.546V300.2a.356.356,0,0,0-.711,0v1.142H566a1.781,1.781,0,0,0-1.778,1.779v10.69A1.78,1.78,0,0,0,566,315.587h10.506a.357.357,0,0,0,.252-.1l4.01-4.01a.369.369,0,0,0,.1-.23c0-.008,0-8.124,0-8.124A1.781,1.781,0,0,0,579.1,301.341ZM566,302.052h2.062v.875a1.567,1.567,0,1,0,.711,0v-.875h7.546v.875a1.568,1.568,0,1,0,.711,0v-.875H579.1a1.068,1.068,0,0,1,1.067,1.067v3.526H564.935V303.12A1.068,1.068,0,0,1,566,302.052Zm2.418,2.4a.356.356,0,0,0,.356-.356v-.421a.856.856,0,1,1-.711,0v.421A.356.356,0,0,0,568.42,304.45Zm8.258,0a.356.356,0,0,0,.356-.356v-.421a.856.856,0,1,1-.711,0v.421A.356.356,0,0,0,576.677,304.45Zm-11.742,9.359v-6.453h15.228v3.51h-2.232a1.78,1.78,0,0,0-1.778,1.778v2.232H566A1.068,1.068,0,0,1,564.935,313.809Zm11.929.564v-1.729a1.068,1.068,0,0,1,1.067-1.067h1.729Z" transform="translate(-12588.931 -13452.717)" fill="#5b5b5b"/>
    </g>
  </g>
</svg>
