<svg xmlns="http://www.w3.org/2000/svg" xmlns:xlink="http://www.w3.org/1999/xlink" width="48.553" height="35.926" viewBox="0 0 48.553 35.926">
  <defs>
    <linearGradient id="linear-gradient" x1="0.5" x2="0.5" y2="1.374" gradientUnits="objectBoundingBox">
      <stop offset="0" stop-color="#f9f9f9"/>
      <stop offset="1" stop-color="#ebebeb"/>
    </linearGradient>
  </defs>
  <g id="그룹_5753" data-name="그룹 5753" transform="translate(-573.736 -2732.154)">
    <path id="합치기_32" data-name="합치기 32" d="M19012.545,21448.855c-.5-5.5-1.312-9.811-3.752-19-1.449-5.475-.615-8.355.15-9.551a3.671,3.671,0,0,1,3.354-1.615c7.895-.484,15.125-1.492,17.746.479,1.4,1.047,2.256,1.455,3.135,1.346v-.031s0,.01,0,.031a6.329,6.329,0,0,0,2.533-1.264,6.821,6.821,0,0,1,3.133-1.029c1.621-.184,8.879-.512,9.707.748a6.9,6.9,0,0,1,.643,1.051l-.012-.082c.764-.549,1.824-.549,3.193,1.094s3.219,6.547,2.348,12.867a46.466,46.466,0,0,1-4.572,14.953,19.517,19.517,0,0,1-12.668,2.438c-3-.371-2.25-1.561-8.75,0a25.921,25.921,0,0,1-5.748,1.063C19020.68,21452.355,19018.352,21451.426,19012.545,21448.855Z" transform="translate(-18433.477 -18684.98)" fill="url(#linear-gradient)"/>
    <path id="패스_20668" data-name="패스 20668" d="M-18573.152-18684.687c2.225,1.82,3.836-.207,7.367,4.92s.326,12.193,3.293,11.721c2.041,1.02.371-8.17,3.977-15.453-2.547,1.406-.842,3.076-4.426,1.947S-18566-18682.924-18573.152-18684.687Z" transform="translate(19162.172 21417.016)" fill="#d5d5d5"/>
    <ellipse id="타원_717" data-name="타원 717" cx="7.421" cy="1.219" rx="7.421" ry="1.219" transform="translate(578.291 2734.922) rotate(-2)" fill="#fff"/>
    <path id="패스_20672" data-name="패스 20672" d="M-18549.383-18684.463s4.15-.936,3.518,8.047c-.17,1.172,1.367,1.537,2.574-.48.828-1.482.838-2.924.211-5.045-.326-1.105-1.463-.725-2.785-1.184C-18547.4-18683.674-18549.383-18684.463-18549.383-18684.463Z" transform="translate(19162 21417.324)" fill="#d5d5d5"/>
    <g id="그룹_5037" data-name="그룹 5037" transform="translate(20375.412 21377.172)">
      <path id="패스_20659" data-name="패스 20659" d="M-19758.736-18635.926c.184-3.016-.283-5.479-1.6-7.26-.83-1.26-8.09-.932-9.707-.746a6.809,6.809,0,0,0-3.137,1.029c-2.363,1.613-3.115,1.828-5.666-.082-2.625-1.969-9.854-.965-17.746-.477a3.672,3.672,0,0,0-3.355,1.615c-.766,1.193-1.6,4.072-.148,9.549,2.438,9.186,3.252,13.5,3.75,19,9.752,4.316,9.689,4,16.191,2.439s5.746-.375,8.748,0a19.552,19.552,0,0,0,12.67-2.439,46.561,46.561,0,0,0,4.568-14.953c.871-6.318-.973-11.221-2.344-12.865s-2.432-1.643-3.2-1.1" transform="translate(0.002 0.002)" fill="none" stroke="#0d176c" stroke-linecap="round" stroke-linejoin="round" stroke-width="1.5"/>
      <path id="패스_20661" data-name="패스 20661" d="M-19747.605-18635.57a65.536,65.536,0,0,1,0,13.129" transform="translate(-28.106 -6.1)" fill="none" stroke="#0d176c" stroke-linecap="round" stroke-width="0.6"/>
    </g>
  </g>
</svg>
