<svg xmlns="http://www.w3.org/2000/svg" width="14.419" height="13.607" viewBox="0 0 14.419 13.607">
  <g id="icon_paper_plane" transform="translate(0 0)">
    <path id="패스_29485" data-name="패스 29485" d="M390.053,377.841l-12.791,5.576a.813.813,0,0,0-.048,1.469l2.594,1.339,7.728-5.375a.108.108,0,0,1,.17.086l-6.473,6.179a.815.815,0,0,0-.252.589v2.862a.814.814,0,0,0,1.508.424l1.57-2.57,3.323,1.715a.814.814,0,0,0,1.164-.531l2.624-10.824A.813.813,0,0,0,390.053,377.841Z" transform="translate(-376.773 -377.771)" fill="#33b5e4"/>
  </g>
</svg>
