<svg id="icon_extension_xls" xmlns="http://www.w3.org/2000/svg" width="22.504" height="30.089" viewBox="0 0 22.504 30.089">
  <path id="패스_32673" data-name="패스 32673" d="M193.432,288.884H186.14a.319.319,0,0,1-.319-.319V281.2a.319.319,0,0,1,.546-.224l7.292,7.365a.319.319,0,0,1-.227.544m-6.973-.639h6.208l-6.208-6.269Z" transform="translate(-171.247 -280.881)" fill="#9396a4"/>
  <path id="패스_32674" data-name="패스 32674" d="M178.682,310.969H156.816a.318.318,0,0,1-.319-.318V281.2a.318.318,0,0,1,.319-.32h14.575a.318.318,0,0,1,.226.1l7.293,7.365a.319.319,0,0,1,.091.224v22.087a.319.319,0,0,1-.319.318m-21.548-.638h21.229V288.7l-7.105-7.177H157.134Z" transform="translate(-156.497 -280.88)" fill="#9396a4"/>
  <rect id="사각형_6062" data-name="사각형 6062" width="21.866" height="7.366" transform="translate(0.319 22.405)" fill="#9396a4"/>
  <path id="패스_32675" data-name="패스 32675" d="M171.174,330.775l.725-1.379h.9l-1.143,1.933,1.207,1.972h-.938l-.743-1.409-.744,1.409h-.911l1.18-1.972-1.153-1.933h.9Zm2.87,1.923h1.719v.6h-2.489v-3.9h.77Zm4.255-.422a.455.455,0,0,0-.158-.355,1.435,1.435,0,0,0-.548-.254,3.359,3.359,0,0,1-1.05-.478.93.93,0,0,1-.353-.76.956.956,0,0,1,.409-.787,1.7,1.7,0,0,1,1.031-.3,1.561,1.561,0,0,1,1.041.336,1.043,1.043,0,0,1,.39.845l-.009.019H178.3a.554.554,0,0,0-.177-.432.706.706,0,0,0-.5-.169.726.726,0,0,0-.484.141.436.436,0,0,0-.167.356.371.371,0,0,0,.176.319,2.477,2.477,0,0,0,.631.272,2.276,2.276,0,0,1,.966.469,1,1,0,0,1,.335.778.924.924,0,0,1-.4.788,1.66,1.66,0,0,1-1.031.291,1.918,1.918,0,0,1-1.105-.329,1.034,1.034,0,0,1-.455-.918l.009-.019h.753a.59.59,0,0,0,.214.507.908.908,0,0,0,.585.168.783.783,0,0,0,.483-.131.44.44,0,0,0,.167-.357" transform="translate(-163.052 -305.256)" fill="#fefefe"/>
  <path id="패스_32676" data-name="패스 32676" d="M178.627,305.514H160.94a.4.4,0,0,1-.4-.4v-2.8a.4.4,0,0,1,.4-.4h17.687a.4.4,0,0,1,.4.4v2.8a.4.4,0,0,1-.4.4m-17.288-.8h16.889v-2H161.338Z" transform="translate(-158.531 -291.463)" fill="#9396a4"/>
  <path id="패스_32677" data-name="패스 32677" d="M178.627,311.129H160.94a.4.4,0,0,1-.4-.4v-2.786a.4.4,0,0,1,.4-.4h17.687a.4.4,0,0,1,.4.4v2.786a.4.4,0,0,1-.4.4m-17.288-.8h16.889v-1.989H161.338Z" transform="translate(-158.531 -294.292)" fill="#9396a4"/>
  <path id="패스_32678" data-name="패스 32678" d="M178.627,316.745H160.94a.4.4,0,0,1-.4-.4v-2.8a.4.4,0,0,1,.4-.4h17.687a.4.4,0,0,1,.4.4v2.8a.4.4,0,0,1-.4.4m-17.288-.8h16.889v-2H161.338Z" transform="translate(-158.531 -297.112)" fill="#9396a4"/>
  <path id="패스_32679" data-name="패스 32679" d="M178.692,311.1h-6.8a.4.4,0,0,1-.4-.4V302.32a.4.4,0,0,1,.4-.4h6.8a.4.4,0,0,1,.4.4V310.7a.4.4,0,0,1-.4.4m-6.4-.8h6v-7.581h-6Z" transform="translate(-164.039 -291.463)" fill="#9396a4"/>
</svg>
