<svg id="icon_extension_jpg" xmlns="http://www.w3.org/2000/svg" width="22.505" height="30.099" viewBox="0 0 22.505 30.099">
  <path id="패스_32647" data-name="패스 32647" d="M115.184,288.884h-7.292a.319.319,0,0,1-.319-.319V281.2a.32.32,0,0,1,.2-.3.324.324,0,0,1,.348.071l7.292,7.365a.319.319,0,0,1-.227.544m-6.973-.639h6.208l-6.208-6.269Z" transform="translate(-92.998 -280.881)" fill="#9396a4"/>
  <path id="패스_32648" data-name="패스 32648" d="M100.433,310.979H78.567a.319.319,0,0,1-.319-.319V281.2a.319.319,0,0,1,.319-.319H93.142a.322.322,0,0,1,.227.095l7.292,7.365a.32.32,0,0,1,.091.225v22.1a.319.319,0,0,1-.319.319m-21.548-.639h21.229V288.7l-7.106-7.177H78.886Z" transform="translate(-78.248 -280.88)" fill="#9396a4"/>
  <rect id="사각형_6054" data-name="사각형 6054" width="21.866" height="7.365" transform="translate(0.32 22.415)" fill="#9396a4"/>
  <path id="패스_32649" data-name="패스 32649" d="M92.841,329.4h.77v2.731a1.131,1.131,0,0,1-.372.9,1.288,1.288,0,0,1-.919.329,1.448,1.448,0,0,1-.957-.291,1.079,1.079,0,0,1-.343-.881l.008-.019h.753a.583.583,0,0,0,.149.45.522.522,0,0,0,.39.141.447.447,0,0,0,.362-.168.654.654,0,0,0,.159-.459Zm2.257,2.487V333.3h-.781v-3.9H95.86a1.481,1.481,0,0,1,1.049.346,1.255,1.255,0,0,1,0,1.8,1.52,1.52,0,0,1-1.049.339Zm0-.6h.761a.621.621,0,0,0,.492-.178.642.642,0,0,0,.167-.45.67.67,0,0,0-.167-.469.621.621,0,0,0-.492-.179H95.1Zm5.73,1.483a1.388,1.388,0,0,1-.529.413,2.121,2.121,0,0,1-.929.178,1.535,1.535,0,0,1-1.607-1.595v-.816a1.6,1.6,0,0,1,.437-1.154,1.47,1.47,0,0,1,1.105-.451,1.578,1.578,0,0,1,1.086.347,1.211,1.211,0,0,1,.381.92v.01h-.734a.8.8,0,0,0-.195-.49.684.684,0,0,0-.511-.177.7.7,0,0,0-.576.272,1.108,1.108,0,0,0-.223.713v.826a1.092,1.092,0,0,0,.233.713.734.734,0,0,0,.6.281,1.362,1.362,0,0,0,.436-.056.635.635,0,0,0,.251-.141v-.713h-.688V331.3h1.458Z" transform="translate(-84.672 -305.255)" fill="#fefefe"/>
  <path id="패스_32650" data-name="패스 32650" d="M84.531,303.111a2.2,2.2,0,1,1,2.182-2.2,2.194,2.194,0,0,1-2.182,2.2m0-3.6a1.4,1.4,0,1,0,1.385,1.4,1.4,1.4,0,0,0-1.385-1.4" transform="translate(-80.311 -289.848)" fill="#9396a4"/>
  <path id="패스_32651" data-name="패스 32651" d="M100.444,310.37H82.878a.4.4,0,0,1-.308-.652l5.824-7.084a.4.4,0,0,1,.545-.067l2.463,1.818,5.054-4.442a.4.4,0,0,1,.569.044l3.725,4.437a.4.4,0,0,1,.093.256v5.293a.4.4,0,0,1-.4.4m-16.722-.8h16.323v-4.748l-3.37-4.014L91.687,305.2a.4.4,0,0,1-.5.02l-2.417-1.783Z" transform="translate(-80.376 -290.419)" fill="#9396a4"/>
</svg>
