<svg xmlns="http://www.w3.org/2000/svg" width="18.338" height="13.181" viewBox="0 0 18.338 13.181">
  <g id="icon_cloud_upload" transform="translate(0 0)">
    <path id="패스_29472" data-name="패스 29472" d="M15.808,9.206a3.73,3.73,0,0,0-4.546-2.261,5.157,5.157,0,0,0-9.543,2.6,3.438,3.438,0,0,0,1.718,6.417H6.877V14.815H3.437a2.293,2.293,0,0,1-.521-4.525,3.966,3.966,0,0,1-.05-.633A4.012,4.012,0,0,1,10.717,8.5a2.58,2.58,0,0,1,4.167,1.734H14.9a2.292,2.292,0,0,1,0,4.585h-3.44v1.146H14.9a3.439,3.439,0,0,0,.909-6.755Z" transform="translate(0 -4.5)" fill="#33b5e4"/>
    <path id="패스_29473" data-name="패스 29473" d="M13.865,13.5,11,16.938h1.719v4.585h2.292V16.938h1.719Z" transform="translate(-4.696 -8.342)" fill="#33b5e4"/>
  </g>
</svg>
