<svg xmlns="http://www.w3.org/2000/svg" xmlns:xlink="http://www.w3.org/1999/xlink" width="48.836" height="37.627" viewBox="0 0 48.836 37.627">
  <defs>
    <linearGradient id="linear-gradient" x1="0.5" x2="0.5" y2="1.374" gradientUnits="objectBoundingBox">
      <stop offset="0" stop-color="#f9f9f9"/>
      <stop offset="1" stop-color="#ebebeb"/>
    </linearGradient>
  </defs>
  <g id="그룹_5752" data-name="그룹 5752" transform="translate(-496.557 -2730.451)">
    <path id="합치기_33" data-name="합치기 33" d="M19012.57,21450.9c-.5-5.535-1.32-9.875-3.775-19.125s1.572-11.137,1.572-11.137a21.3,21.3,0,0,1,17.367-.961l-1.186-.605.539.033-.539-.055s6.563-2.748,10.209.658l.484.031-.26.191c.064.066.127.137.189.207l-.412-.043-2.873,2.123a16.716,16.716,0,0,0,3.334-2.037c3.543-2.445,10.408-.975,11.6.635a7.248,7.248,0,0,1,.643,1.053l-.014-.078c.771-.549,1.842-.555,3.221,1.1s3.236,6.6,2.359,12.955a46.923,46.923,0,0,1-4.6,15.055,19.7,19.7,0,0,1-12.756,2.455c-3.025-.377-2.266-1.572-8.809,0a26.212,26.212,0,0,1-5.789,1.066C19020.76,21454.418,19018.416,21453.484,19012.57,21450.9Zm17.617-29.885a5.12,5.12,0,0,0,2.824,1.354l-3.3-1.686C19029.879,21420.791,19030.041,21420.9,19030.188,21421.012Z" transform="translate(-18510.633 -18687.047)" fill="url(#linear-gradient)"/>
    <ellipse id="타원_714" data-name="타원 714" cx="1.336" cy="0.719" rx="1.336" ry="0.719" transform="translate(513 2734.406)" fill="#fff"/>
    <ellipse id="타원_715" data-name="타원 715" cx="4.836" cy="1.219" rx="4.836" ry="1.219" transform="translate(503.328 2732.875)" fill="#fff"/>
    <ellipse id="타원_716" data-name="타원 716" cx="3.336" cy="1.219" rx="3.336" ry="1.219" transform="translate(528.211 2733.188)" fill="#fff"/>
    <path id="패스_20669" data-name="패스 20669" d="M-18574.3-18685.768c2.225,1.82,4.775.76,8.307,5.887s.326,12.193,3.293,11.721c2.027,1.014,1.209-11.072,5.67-17.607-3.348,2.7-2.879,4.242-3.984,2.83s-2.852-1.971-5.613-2.371S-18570.258-18683.947-18574.3-18685.768Z" transform="translate(19085.244 21417.016)" fill="#d5d5d5"/>
    <path id="패스_20671" data-name="패스 20671" d="M-18549.383-18684.463s4.15-.936,3.518,8.047c-.17,1.172,1.367,1.537,2.574-.48.828-1.482.838-2.924.211-5.045-.326-1.105-1.463-.725-2.785-1.184C-18547.4-18683.674-18549.383-18684.463-18549.383-18684.463Z" transform="translate(19085 21417.324)" fill="#d5d5d5"/>
    <g id="그룹_5036" data-name="그룹 5036" transform="translate(20298.191 21377.172)">
      <path id="패스_20659" data-name="패스 20659" d="M-19758.449-18636.07c.184-3.035-.287-5.514-1.611-7.307-1.191-1.609-8.059-3.078-11.6-.631s-4.137,3-7.035.832-11.072-4.719-19.818-.379c0,0-4.025,1.887-1.574,11.139s3.275,13.592,3.775,19.125c9.818,4.346,9.756,4.029,16.3,2.455s5.785-.377,8.807,0a19.68,19.68,0,0,0,12.758-2.455,46.913,46.913,0,0,0,4.6-15.055c.877-6.361-.979-11.3-2.359-12.953s-2.447-1.652-3.217-1.1" transform="translate(0 -0.032)" fill="none" stroke="#0d176c" stroke-linecap="round" stroke-linejoin="round" stroke-width="1.5"/>
      <path id="패스_20660" data-name="패스 20660" d="M-19761.572-18644.7s7.086-2.967,10.625,1.086" transform="translate(-20.759 -0.477)" fill="none" stroke="#0d176c" stroke-linecap="round" stroke-width="1"/>
      <path id="패스_20661" data-name="패스 20661" d="M-19747.607-18635.57a65.725,65.725,0,0,1,0,13.217" transform="translate(-27.933 -6.315)" fill="none" stroke="#0d176c" stroke-linecap="round" stroke-width="0.6"/>
    </g>
  </g>
</svg>
