<svg xmlns="http://www.w3.org/2000/svg" xmlns:xlink="http://www.w3.org/1999/xlink" width="49.248" height="40.273" viewBox="0 0 49.248 40.273">
  <defs>
    <linearGradient id="linear-gradient" x1="0.5" x2="0.5" y2="1.374" gradientUnits="objectBoundingBox">
      <stop offset="0" stop-color="#f9f9f9"/>
      <stop offset="1" stop-color="#ebebeb"/>
    </linearGradient>
  </defs>
  <g id="그룹_5051" data-name="그룹 5051" transform="translate(-419.076 -2727.805)">
    <path id="합치기_34" data-name="합치기 34" d="M19012.6,21453.174c-.5-5.568-1.33-9.941-3.8-19.252s1.582-11.213,1.582-11.213l8.8-4.373s3.545-1.141,5.764.766c.436.373.908.754,1.387,1.123.41-.65,3.316-4.531,10.98,1.938,1.758-1.479,3.34-3.061,3.34-3.061s1.713-1.713,4.5,0a13.671,13.671,0,0,1,3.441,3.143c.775-.547,1.922-.553,4.342,1.7s3.289,7.67,2.406,14.072a47.188,47.188,0,0,1-4.631,15.154,19.846,19.846,0,0,1-12.844,2.477c-3.043-.383-2.277-1.584-8.863,0a26.4,26.4,0,0,1-5.828,1.072C19020.846,21456.723,19018.488,21455.781,19012.6,21453.174Zm23.564-30.082c.334-.256.674-.529,1.008-.807l-4.043,1.514A4.335,4.335,0,0,0,19036.162,21423.092Zm-3.268.684-6.082-3.186c1.8,1.359,3.523,2.5,3.523,2.5a9.868,9.868,0,0,0,2.225.639v0C19032.67,21423.746,19032.781,21423.762,19032.895,21423.775Z" transform="translate(-18588.168 -18689.352)" fill="url(#linear-gradient)"/>
    <ellipse id="타원_711" data-name="타원 711" cx="4.5" cy="3" rx="4.5" ry="3" transform="translate(429.773 2730.938) rotate(17)" fill="#fff"/>
    <ellipse id="타원_712" data-name="타원 712" cx="2" cy="1.5" rx="2" ry="1.5" transform="translate(437.43 2735.27) rotate(17)" fill="#fff"/>
    <ellipse id="타원_713" data-name="타원 713" cx="2.578" cy="1.5" rx="2.578" ry="1.5" transform="translate(450.727 2734.887) rotate(-50)" fill="#fff"/>
    <path id="패스_20667" data-name="패스 20667" d="M-18574.166-18688.389a33.178,33.178,0,0,1,8.17,8.508c3.531,5.127.326,12.193,3.293,11.721,2.027,1.014,1.209-11.072,5.67-17.607-3.348,2.7-2.969,1.412-4.074,0s-2.762.859-5.523.459S-18570.121-18686.568-18574.166-18688.389Z" transform="translate(19008 21417.016)" fill="#d5d5d5"/>
    <path id="패스_20670" data-name="패스 20670" d="M-18549.242-18686.078s4.01.68,3.377,9.662c-.17,1.172,1.367,1.537,2.574-.48.828-1.482.838-2.924.211-5.045C-18543.988-18685.021-18549.242-18686.078-18549.242-18686.078Z" transform="translate(19008 21417.016)" fill="#d5d5d5"/>
    <g id="그룹_5035" data-name="그룹 5035" transform="translate(20220.713 21377.172)">
      <path id="패스_20659" data-name="패스 20659" d="M-19758.164-18636.279c.186-3.057-.287-5.553-1.621-7.357a14.52,14.52,0,0,0-3.937-3.787c-2.787-1.711-4.5,0-4.5,0a54.208,54.208,0,0,1-4.5,3.99c-2.154,1.648-5.828,0-5.828,0a65.543,65.543,0,0,1-5.385-3.99c-2.217-1.9-5.762-.762-5.762-.762l-8.807,4.371s-4.053,1.9-1.584,11.213,3.3,13.684,3.8,19.254c9.885,4.375,9.822,4.057,16.41,2.473s5.824-.381,8.867,0a19.813,19.813,0,0,0,12.842-2.473,47.192,47.192,0,0,0,4.629-15.156c.883-6.4.018-11.8-2.406-14.07s-3.576-2.252-4.35-1.7" transform="translate(0 0.002)" fill="none" stroke="#0d176c" stroke-linecap="round" stroke-linejoin="round" stroke-width="1.5"/>
      <path id="패스_20660" data-name="패스 20660" d="M-19761.746-18646s2.219-5.07,10.582,2.023" transform="translate(-20.588 -0.534)" fill="none" stroke="#0d176c" stroke-linecap="round" stroke-width="1"/>
      <path id="패스_20661" data-name="패스 20661" d="M-19748.674-18636.346a46.643,46.643,0,0,1,.953,14" transform="translate(-27.649 -6.449)" fill="none" stroke="#0d176c" stroke-linecap="round" stroke-width="0.6"/>
    </g>
  </g>
</svg>
