<svg width="46" height="44" viewBox="0 0 46 44" fill="none" xmlns="http://www.w3.org/2000/svg">
<path d="M34.4341 12.6863C35.9161 11.0039 35.8197 8.37747 34.2188 6.82003C32.618 5.26258 30.1189 5.36388 28.6369 7.04628C27.155 8.72868 27.2514 11.3551 28.8522 12.9125C30.4531 14.47 32.9522 14.3687 34.4341 12.6863Z" stroke="#242F35" stroke-width="1.5" stroke-miterlimit="10" stroke-linecap="round"/>
<path d="M31.5357 11.7737C30.5314 11.7737 29.728 10.9293 29.728 9.87389C29.728 8.81846 30.5314 7.97412 31.5357 7.97412C32.54 7.97412 33.3434 8.81846 33.3434 9.87389C33.3434 10.9293 32.5177 11.7737 31.5357 11.7737Z" fill="#CAE1EF"/>
<path d="M43.2068 22.8063C44.7494 21.1851 44.7494 18.5566 43.2068 16.9354C41.6642 15.3143 39.1631 15.3143 37.6205 16.9354C36.0779 18.5566 36.0779 21.1851 37.6205 22.8063C39.1631 24.4274 41.6642 24.4274 43.2068 22.8063Z" stroke="#242F35" stroke-width="1.5" stroke-miterlimit="10" stroke-linecap="round"/>
<path d="M40.4127 21.7674C39.4084 21.7674 38.605 20.9231 38.605 19.8677C38.605 18.8122 39.4084 17.9679 40.4127 17.9679C41.4169 17.9679 42.2203 18.8122 42.2203 19.8677C42.2203 20.9231 41.4169 21.7674 40.4127 21.7674Z" fill="#CAE1EF"/>
<path d="M34.8274 13L37.7269 16" stroke="#242F35" stroke-width="1.5" stroke-miterlimit="10" stroke-linecap="round"/>
<path d="M20.3498 23.9217C22.4721 23.391 23.7831 21.1526 23.278 18.9223C22.773 16.6919 20.6431 15.3141 18.5209 15.8449C16.3986 16.3756 15.0876 18.614 15.5927 20.8443C16.0977 23.0747 18.2276 24.4525 20.3498 23.9217Z" stroke="#242F35" stroke-width="1.5" stroke-miterlimit="10" stroke-linecap="round"/>
<path d="M19.4356 21.7845C18.4313 21.7845 17.6279 20.9402 17.6279 19.8848C17.6279 18.8293 18.4313 17.985 19.4356 17.985C20.4399 17.985 21.2433 18.8293 21.2433 19.8848C21.2433 20.9402 20.4176 21.7845 19.4356 21.7845Z" fill="#CAE1EF"/>
<path d="M28.1541 12.3723L22.7167 17.1195" stroke="#242F35" stroke-width="1.5" stroke-miterlimit="10" stroke-linecap="round"/>
<path d="M24.2532 7.39294C21.3498 7.39294 18.7949 8.81688 17.1302 11.0138C15.4656 8.81688 12.8719 7.39294 10.0073 7.39294C8.03297 7.39294 6.25222 8.04389 4.74246 9.14235C1.64552 11.4613 0.368027 15.5704 1.29711 19.4354C1.64552 20.8186 2.22619 22.5273 3.2327 23.7478C3.77467 24.3988 4.04565 25.2531 4.00694 26.1075C3.8908 28.7113 4.23921 34.2443 8.26524 39.3298C9.1169 40.4282 10.8202 40.0621 11.1686 38.6788C11.7106 36.6039 12.5235 33.6747 13.6462 30.6641C14.885 27.328 19.3755 27.328 20.6143 30.6641C21.737 33.6747 22.5499 36.6039 23.0919 38.6788C23.4403 40.0621 25.1436 40.4689 25.9953 39.3704C30.0213 34.2443 30.4084 28.752 30.2923 26.1482C30.2536 25.2938 30.5245 24.4395 31.0665 23.7885C32.073 22.5273 32.6537 20.8186 33.0021 19.4354" stroke="#242F35" stroke-width="1.5" stroke-miterlimit="10" stroke-linecap="round"/>
</svg>
