<svg id="icon_extension_rar" xmlns="http://www.w3.org/2000/svg" width="22.505" height="30.178" viewBox="0 0 22.505 30.178">
  <path id="패스_32652" data-name="패스 32652" d="M36.936,8.163H29.644a.318.318,0,0,1-.319-.319V.479a.319.319,0,0,1,.546-.224L37.163,7.62a.319.319,0,0,1-.227.543m-6.973-.638h6.209l-6.209-6.27Z" transform="translate(-14.75 -0.081)" fill="#9396a4"/>
  <path id="패스_32653" data-name="패스 32653" d="M22.185,30.258H.319A.319.319,0,0,1,0,29.939V.479A.319.319,0,0,1,.319.16H14.894a.315.315,0,0,1,.226.095L22.413,7.62a.318.318,0,0,1,.092.224v22.1a.32.32,0,0,1-.32.319M.638,29.62H21.866V7.975L14.761.8H.638Z" transform="translate(0 -0.081)" fill="#9396a4"/>
  <rect id="사각형_6056" data-name="사각형 6056" width="21.867" height="7.365" transform="translate(0.319 22.494)" fill="#9396a4"/>
  <path id="패스_32654" data-name="패스 32654" d="M13.187,51.077v1.557h-.771v-3.9h1.459a1.576,1.576,0,0,1,1.031.31,1.007,1.007,0,0,1,.371.844.894.894,0,0,1-.149.526,1.22,1.22,0,0,1-.464.347.811.811,0,0,1,.492.338,1.071,1.071,0,0,1,.149.591v.29a1.547,1.547,0,0,0,.046.338.476.476,0,0,0,.149.262v.056h-.8a.407.407,0,0,1-.139-.281,2.927,2.927,0,0,1-.028-.385V51.7a.656.656,0,0,0-.158-.46.634.634,0,0,0-.446-.16Zm0-.6h.669a.735.735,0,0,0,.492-.141.54.54,0,0,0,.158-.413.613.613,0,0,0-.158-.431.672.672,0,0,0-.473-.16h-.688Zm4.9,1.323H16.727l-.26.835h-.78l1.328-3.9h.79l1.329,3.9h-.78Zm-1.162-.609H17.9l-.483-1.539H17.4Zm3.344-.113v1.557h-.771v-3.9h1.458a1.578,1.578,0,0,1,1.031.31,1.007,1.007,0,0,1,.371.844.843.843,0,0,1-.158.526,1.116,1.116,0,0,1-.456.347.812.812,0,0,1,.493.338,1.075,1.075,0,0,1,.149.591v.29a1.55,1.55,0,0,0,.047.338.426.426,0,0,0,.149.262v.056h-.8a.405.405,0,0,1-.139-.281,2.927,2.927,0,0,1-.028-.385V51.7a.653.653,0,0,0-.158-.46.635.635,0,0,0-.446-.16Zm0-.6h.668a.734.734,0,0,0,.492-.141.538.538,0,0,0,.159-.413.611.611,0,0,0-.159-.431.671.671,0,0,0-.473-.16h-.687Z" transform="translate(-6.245 -24.512)" fill="#fefefe"/>
  <path id="패스_32655" data-name="패스 32655" d="M17.71,5.97H14.069a.4.4,0,0,1,0-.8H17.71a.4.4,0,0,1,0,.8" transform="translate(-6.876 -2.601)" fill="#9396a4"/>
  <path id="패스_32656" data-name="패스 32656" d="M17.71,10.1H14.069a.4.4,0,0,1,0-.8H17.71a.4.4,0,0,1,0,.8" transform="translate(-6.876 -4.681)" fill="#9396a4"/>
  <path id="패스_32657" data-name="패스 32657" d="M17.733,14.027a.4.4,0,0,1-.4-.4V.4a.4.4,0,1,1,.8,0V13.628a.4.4,0,0,1-.4.4" transform="translate(-8.719)" fill="#9396a4"/>
  <path id="패스_32658" data-name="패스 32658" d="M17.71,14.22H14.069a.4.4,0,0,1,0-.8H17.71a.4.4,0,0,1,0,.8" transform="translate(-6.876 -6.751)" fill="#9396a4"/>
  <path id="패스_32659" data-name="패스 32659" d="M17.71,18.335H14.069a.4.4,0,0,1,0-.8H17.71a.4.4,0,0,1,0,.8" transform="translate(-6.876 -8.821)" fill="#9396a4"/>
  <path id="패스_32660" data-name="패스 32660" d="M17.71,22.469H14.069a.4.4,0,0,1,0-.8H17.71a.4.4,0,0,1,0,.8" transform="translate(-6.876 -10.901)" fill="#9396a4"/>
  <path id="패스_32661" data-name="패스 32661" d="M15.17,34.827A3.077,3.077,0,0,1,12.9,33.806a2.5,2.5,0,0,1-.646-1.977l.557-4.858a.4.4,0,0,1,.4-.354h3.92a.4.4,0,0,1,.4.354l.558,4.86a2.5,2.5,0,0,1-.646,1.975,3.074,3.074,0,0,1-2.267,1.021m-1.6-7.412-.517,4.507a1.72,1.72,0,0,0,.45,1.355,2.231,2.231,0,0,0,3.342,0,1.72,1.72,0,0,0,.45-1.353l-.517-4.509Z" transform="translate(-6.156 -13.388)" fill="#9396a4"/>
  <path id="패스_32662" data-name="패스 32662" d="M16.555,37.153a1.642,1.642,0,0,1-1.236-.568,1.3,1.3,0,0,1-.31-1.058l.15-.859a.4.4,0,0,1,.393-.331h2.006a.4.4,0,0,1,.393.331l.149.853a1.3,1.3,0,0,1-.31,1.063,1.642,1.642,0,0,1-1.235.568m-.668-2.017-.091.523a.507.507,0,0,0,.131.409.83.83,0,0,0,1.256,0,.51.51,0,0,0,.13-.415l-.09-.517Z" transform="translate(-7.542 -17.272)" fill="#9396a4"/>
</svg>
