<svg id="icon_extension_docx" xmlns="http://www.w3.org/2000/svg" width="22.504" height="30.098" viewBox="0 0 22.504 30.098">
  <path id="패스_32708" data-name="패스 32708" d="M271.68,8h-7.292a.319.319,0,0,1-.319-.319V.32A.319.319,0,0,1,264.615.1l7.292,7.365A.319.319,0,0,1,271.68,8m-6.973-.638h6.208L264.707,1.1Z" transform="translate(-249.496 -0.001)" fill="#9396a4"/>
  <path id="패스_32709" data-name="패스 32709" d="M256.931,30.1H235.064a.319.319,0,0,1-.319-.319V.319A.319.319,0,0,1,235.064,0h14.575a.316.316,0,0,1,.226.094l7.293,7.366a.318.318,0,0,1,.091.224v22.1a.318.318,0,0,1-.319.319m-21.547-.638h21.229V7.815L249.506.638H235.383Z" transform="translate(-234.745)" fill="#9396a4"/>
  <rect id="사각형_6072" data-name="사각형 6072" width="21.866" height="7.365" transform="translate(0.319 22.414)" fill="#9396a4"/>
  <path id="패스_32710" data-name="패스 32710" d="M243.479,52.418v-3.9h1.328a1.58,1.58,0,0,1,1.635,1.633v.648a1.576,1.576,0,0,1-.464,1.172,1.6,1.6,0,0,1-1.17.451Zm.78-3.293v2.693h.511a.8.8,0,0,0,.65-.281,1.127,1.127,0,0,0,.241-.742v-.657a1.1,1.1,0,0,0-.241-.732.8.8,0,0,0-.65-.281Zm5.9,1.7a1.638,1.638,0,0,1-.446,1.182,1.546,1.546,0,0,1-1.17.469,1.5,1.5,0,0,1-1.162-.469,1.64,1.64,0,0,1-.445-1.182v-.7a1.709,1.709,0,0,1,.436-1.191,1.683,1.683,0,0,1,2.331,0,1.642,1.642,0,0,1,.455,1.191Zm-.78-.713a1.2,1.2,0,0,0-.224-.75.8.8,0,0,0-1.236,0,1.261,1.261,0,0,0-.214.75v.713a1.29,1.29,0,0,0,.214.759.754.754,0,0,0,.623.291.744.744,0,0,0,.612-.291,1.223,1.223,0,0,0,.224-.759Zm4.3.976.009.019a1.287,1.287,0,0,1-.381,1,1.526,1.526,0,0,1-1.087.366,1.5,1.5,0,0,1-1.133-.45,1.625,1.625,0,0,1-.436-1.163v-.779a1.615,1.615,0,0,1,.427-1.163,1.417,1.417,0,0,1,1.1-.459,1.561,1.561,0,0,1,1.115.375,1.259,1.259,0,0,1,.39,1.013v.019h-.752a.849.849,0,0,0-.185-.591.716.716,0,0,0-.567-.206.659.659,0,0,0-.557.281,1.186,1.186,0,0,0-.2.722v.779a1.192,1.192,0,0,0,.214.732.681.681,0,0,0,.585.291.694.694,0,0,0,.539-.2.9.9,0,0,0,.167-.591ZM255.6,49.9l.725-1.389h.9l-1.143,1.933,1.207,1.971h-.938l-.743-1.408-.744,1.408h-.91l1.18-1.971-1.152-1.933h.9Z" transform="translate(-239.138 -24.374)" fill="#fefefe"/>
  <path id="패스_32711" data-name="패스 32711" d="M256.974,21.838H242.39a.319.319,0,1,1,0-.638h14.584a.319.319,0,1,1,0,.638" transform="translate(-238.43 -10.663)" fill="#9396a4"/>
  <path id="패스_32712" data-name="패스 32712" d="M256.974,26.764H242.39a.319.319,0,1,1,0-.638h14.584a.319.319,0,0,1,0,.638" transform="translate(-238.43 -13.141)" fill="#9396a4"/>
  <path id="패스_32713" data-name="패스 32713" d="M256.974,31.711H242.39a.319.319,0,1,1,0-.638h14.584a.319.319,0,0,1,0,.638" transform="translate(-238.43 -15.629)" fill="#9396a4"/>
  <path id="패스_32714" data-name="패스 32714" d="M249.682,36.656H242.39a.319.319,0,1,1,0-.638h7.292a.319.319,0,0,1,0,.638" transform="translate(-238.43 -18.116)" fill="#9396a4"/>
</svg>
