<svg width="50" height="50" viewBox="0 0 50 50" fill="none" xmlns="http://www.w3.org/2000/svg">
<path d="M15.5556 9.44444C18.9304 9.44444 21.6667 12.3051 21.6667 15.8333C21.6667 19.3616 18.9304 22.2222 15.5556 22.2222C12.1807 22.2222 9.44444 19.3616 9.44444 15.8333C9.44444 12.3051 12.1807 9.44444 15.5556 9.44444ZM15.5556 19.0278C17.243 19.0278 18.6111 17.5975 18.6111 15.8333C18.6111 14.0692 17.243 12.6389 15.5556 12.6389C13.8681 12.6389 12.5 14.0692 12.5 15.8333C12.5 17.5975 13.8681 19.0278 15.5556 19.0278ZM46.875 0C48.6023 0 50 1.39766 50 3.125V46.875C50 48.6023 48.6023 50 46.875 50H3.125C1.39766 50 0 48.6023 0 46.875V3.125C0 1.39766 1.39766 0 3.125 0H46.875ZM3.125 45.3125C3.125 45.7461 3.30078 46.1367 3.58594 46.4203C3.30234 46.1367 3.125 45.7461 3.125 45.3125ZM46.875 45.3125V40.6219L35.4844 29.2313C34.8742 28.6211 33.8852 28.6211 33.275 29.2313C33.275 29.2313 25.7508 36.7555 24.0891 38.4188C22.4273 40.0789 21.3078 40.0547 19.6703 38.4188C18.0328 36.7797 16.7344 35.4813 16.7344 35.4813C16.1242 34.8711 15.1352 34.8711 14.525 35.4813L3.58594 46.4203C3.86797 46.7008 4.25703 46.875 4.6875 46.875H45.3125C46.1758 46.875 46.875 46.1758 46.875 45.3125ZM46.875 36.2031V4.6875C46.875 3.82422 46.1758 3.125 45.3125 3.125H4.6875C3.82422 3.125 3.125 3.82422 3.125 4.6875V42.4625L13.4203 32.1688C14.6406 30.9453 16.6188 30.9453 17.8391 32.1688L21.8797 36.2078L32.1703 25.9188C33.3906 24.6953 35.3688 24.6953 36.5891 25.9188L46.875 36.2031Z" fill="#333333"/>
</svg>
