<svg width="46" height="44" viewBox="0 0 46 44" fill="none" xmlns="http://www.w3.org/2000/svg">
<path d="M29.3245 27.5373V19.2077C29.3245 18.7345 28.9633 18.3558 28.5118 18.3558H16.4717" stroke="#242F35" stroke-width="1.5" stroke-miterlimit="10" stroke-linecap="round" stroke-linejoin="round"/>
<path d="M8.67554 18.3558V27.5373" stroke="#242F35" stroke-width="1.5" stroke-miterlimit="10" stroke-linecap="round" stroke-linejoin="round"/>
<path d="M16.4715 18.3559H8.67554V15.5479H14.515C15.1772 15.5479 15.7792 15.9896 15.9598 16.6521L16.4715 18.3559Z" stroke="#242F35" stroke-width="1.5" stroke-miterlimit="10" stroke-linecap="round" stroke-linejoin="round"/>
<path d="M37 10.9728H1L4.85284 4H33.1472L37 10.9728Z" stroke="#242F35" stroke-width="1.5" stroke-miterlimit="10" stroke-linecap="round" stroke-linejoin="round"/>
<path d="M1 10.9729V34.1947C1 35.4252 1.96321 36.4348 3.13712 36.4348H5.03344" stroke="#242F35" stroke-width="1.5" stroke-miterlimit="10" stroke-linecap="round" stroke-linejoin="round"/>
<path d="M37 10.9729V34.1947C37 35.4252 36.0368 36.4348 34.8629 36.4348H32.9666" stroke="#242F35" stroke-width="1.5" stroke-miterlimit="10" stroke-linecap="round" stroke-linejoin="round"/>
<path d="M32.9967 27.5372H5.03345V40H32.9967V27.5372Z" stroke="#242F35" stroke-width="1.5" stroke-miterlimit="10" stroke-linecap="round" stroke-linejoin="round"/>
<path d="M24.1473 32.3961V33.7528C24.1473 34.5101 23.5453 35.1411 22.8229 35.1411H15.1774C14.455 35.1411 13.853 34.5101 13.853 33.7528V32.3961" stroke="#242F35" stroke-width="1.5" stroke-miterlimit="10" stroke-linecap="round" stroke-linejoin="round"/>
<path d="M17.6152 20.249C17.9764 20.9116 18.458 21.448 19.1203 21.795C20.836 22.6785 23.0634 21.7635 24.7791 22.7416C25.6219 23.2148 26.1938 24.0667 26.8861 24.7293C27.0968 24.9186 27.3075 25.0764 27.5483 25.2341V20.249H17.6152Z" fill="#CAE1EF"/>
</svg>
