<svg id="icon_extension_doc" xmlns="http://www.w3.org/2000/svg" width="22.504" height="30.089" viewBox="0 0 22.504 30.089">
  <path id="패스_32701" data-name="패스 32701" d="M271.68,382.412h-7.292a.319.319,0,0,1-.319-.319v-7.365a.319.319,0,0,1,.546-.224l7.292,7.365a.319.319,0,0,1-.227.544m-6.973-.639h6.208l-6.208-6.269Z" transform="translate(-249.495 -374.408)" fill="#9396a4"/>
  <path id="패스_32702" data-name="패스 32702" d="M256.931,404.5H235.064a.318.318,0,0,1-.319-.318V374.727a.319.319,0,0,1,.319-.32h14.575a.315.315,0,0,1,.226.1l7.293,7.365a.321.321,0,0,1,.091.224v22.087a.318.318,0,0,1-.319.318m-21.547-.638h21.229V382.223l-7.106-7.178H235.383Z" transform="translate(-234.745 -374.407)" fill="#9396a4"/>
  <rect id="사각형_6070" data-name="사각형 6070" width="21.866" height="7.356" transform="translate(0.32 22.415)" fill="#9396a4"/>
  <path id="패스_32703" data-name="패스 32703" d="M247.106,426.826v-3.9h1.328a1.567,1.567,0,0,1,1.626,1.633v.648a1.551,1.551,0,0,1-1.626,1.622Zm.78-3.3v2.7h.51a.78.78,0,0,0,.65-.29,1.107,1.107,0,0,0,.233-.742v-.647a1.1,1.1,0,0,0-.233-.732.78.78,0,0,0-.65-.29Zm5.889,1.7a1.64,1.64,0,0,1-.446,1.191,1.683,1.683,0,0,1-2.331,0,1.64,1.64,0,0,1-.446-1.191v-.694a1.677,1.677,0,0,1,.446-1.192,1.547,1.547,0,0,1,1.161-.469,1.584,1.584,0,0,1,1.17.469,1.676,1.676,0,0,1,.446,1.192Zm-.771-.7a1.2,1.2,0,0,0-.223-.75.748.748,0,0,0-.622-.3.708.708,0,0,0-.614.3,1.183,1.183,0,0,0-.223.75v.7a1.213,1.213,0,0,0,.223.76.786.786,0,0,0,1.236,0,1.213,1.213,0,0,0,.223-.76Zm4.3.976v.019a1.224,1.224,0,0,1-.381.994,1.491,1.491,0,0,1-1.087.375,1.519,1.519,0,0,1-1.134-.449,1.647,1.647,0,0,1-.436-1.174v-.769a1.638,1.638,0,0,1,.427-1.163,1.427,1.427,0,0,1,1.105-.46,1.571,1.571,0,0,1,1.124.376,1.26,1.26,0,0,1,.39,1.012l-.009.01h-.752a.88.88,0,0,0-.176-.592.771.771,0,0,0-.576-.206.641.641,0,0,0-.548.29,1.184,1.184,0,0,0-.2.722v.778a1.138,1.138,0,0,0,.214.733.688.688,0,0,0,.576.29.675.675,0,0,0,.539-.2.845.845,0,0,0,.176-.591Z" transform="translate(-240.962 -398.782)" fill="#fefefe"/>
  <path id="패스_32704" data-name="패스 32704" d="M256.974,396.226H242.39a.319.319,0,0,1,0-.639h14.584a.319.319,0,0,1,0,.639" transform="translate(-238.43 -385.061)" fill="#9396a4"/>
  <path id="패스_32705" data-name="패스 32705" d="M256.974,401.173H242.39a.319.319,0,1,1,0-.638h14.584a.319.319,0,1,1,0,.638" transform="translate(-238.43 -387.549)" fill="#9396a4"/>
  <path id="패스_32706" data-name="패스 32706" d="M256.974,406.118H242.39a.319.319,0,1,1,0-.638h14.584a.319.319,0,1,1,0,.638" transform="translate(-238.43 -390.036)" fill="#9396a4"/>
  <path id="패스_32707" data-name="패스 32707" d="M249.682,411.045H242.39a.319.319,0,0,1,0-.639h7.292a.319.319,0,0,1,0,.639" transform="translate(-238.43 -392.514)" fill="#9396a4"/>
</svg>
