<svg id="icon_extension_png" xmlns="http://www.w3.org/2000/svg" width="22.504" height="30.098" viewBox="0 0 22.504 30.098">
  <path id="패스_32616" data-name="패스 32616" d="M271.68,101.69h-7.292a.319.319,0,0,1-.319-.319V94.006a.318.318,0,0,1,.546-.224l7.292,7.365a.319.319,0,0,1-.227.543m-6.973-.638h6.208l-6.208-6.27Z" transform="translate(-249.495 -93.687)" fill="#9396a4"/>
  <path id="패스_32617" data-name="패스 32617" d="M256.931,123.785H235.064a.319.319,0,0,1-.319-.319V94.006a.319.319,0,0,1,.319-.319h14.575a.319.319,0,0,1,.227.095l7.292,7.365a.319.319,0,0,1,.091.224v22.1a.318.318,0,0,1-.319.319m-21.547-.638h21.229V101.5l-7.107-7.177H235.383Z" transform="translate(-234.745 -93.687)" fill="#9396a4"/>
  <rect id="사각형_6046" data-name="사각형 6046" width="21.866" height="7.365" transform="translate(0.32 22.414)" fill="#9396a4"/>
  <path id="패스_32618" data-name="패스 32618" d="M247.735,144.706v1.416h-.78v-3.9H248.5a1.527,1.527,0,0,1,1.051.337,1.186,1.186,0,0,1,.38.9,1.156,1.156,0,0,1-.38.9,1.484,1.484,0,0,1-1.051.347Zm0-.61h.761a.631.631,0,0,0,.492-.178.61.61,0,0,0,.167-.45.689.689,0,0,0-.167-.469.633.633,0,0,0-.492-.178h-.761Zm5.889,2.027h-.771l-1.56-2.674-.019.009v2.664H250.5v-3.9h.771l1.561,2.664.018-.009V142.22h.771Zm3.7-.535a1.611,1.611,0,0,1-.539.413,2.17,2.17,0,0,1-.919.178,1.566,1.566,0,0,1-1.161-.45,1.548,1.548,0,0,1-.455-1.154v-.816a1.6,1.6,0,0,1,.436-1.154,1.472,1.472,0,0,1,1.115-.441,1.525,1.525,0,0,1,1.078.347,1.176,1.176,0,0,1,.381.91v.019h-.734a.731.731,0,0,0-.2-.5.721.721,0,0,0-.511-.178.693.693,0,0,0-.576.282,1.141,1.141,0,0,0-.214.713v.816a1.137,1.137,0,0,0,.223.723.76.76,0,0,0,.613.272,1.3,1.3,0,0,0,.427-.056.791.791,0,0,0,.251-.131v-.723h-.678v-.544h1.458Z" transform="translate(-240.886 -118.069)" fill="#fefefe"/>
  <path id="패스_32619" data-name="패스 32619" d="M246.544,112.7h1.542v1.557h1.533V112.7h1.542v1.557H252.7V112.7h1.543v1.557h1.532V112.7h1.543v1.557h-1.543V115.8h1.543v1.557h-1.543v1.558h1.543v1.558h-1.543v1.548h1.543v1.558h-1.543v-1.558h-1.532v1.558H252.7v-1.558h-1.542v1.558h-1.542v-1.558h-1.533v1.558h-1.542v-1.558h1.542v-1.548h-1.542v-1.558h1.542v-1.558h-1.542V115.8h1.542v-1.549h-1.542ZM252.7,115.8h1.543v-1.549H252.7Zm1.543,1.557h1.532V115.8h-1.532Zm-4.627-1.557h1.542v-1.549h-1.542Zm1.542,1.557H252.7V115.8h-1.542Zm1.542,1.558h1.543v-1.558H252.7Zm1.543,1.558h1.532v-1.558h-1.532Zm-3.084,0h-1.542v1.548h1.542Zm-1.542-1.558h-1.533v1.558h1.533Zm4.627,1.558H252.7v1.548h1.543Zm-1.543-1.558h-1.542v1.558H252.7Zm-1.542-1.558h-1.542v1.558h1.542Zm-1.542-1.557h-1.533v1.557h1.533Z" transform="translate(-240.68 -103.247)" fill="#9396a4" fill-rule="evenodd"/>
</svg>
