<svg id="icon_extension_mp3" xmlns="http://www.w3.org/2000/svg" width="22.504" height="30.098" viewBox="0 0 22.504 30.098">
  <path id="패스_32620" data-name="패스 32620" d="M193.432,195.358H186.14a.319.319,0,0,1-.319-.319v-7.365a.319.319,0,0,1,.546-.225l7.292,7.365a.319.319,0,0,1-.227.543m-6.973-.638h6.208l-6.208-6.27Z" transform="translate(-171.247 -187.354)" fill="#9396a4"/>
  <path id="패스_32621" data-name="패스 32621" d="M178.682,217.452H156.816a.318.318,0,0,1-.319-.319v-29.46a.318.318,0,0,1,.319-.319h14.575a.318.318,0,0,1,.226.095l7.292,7.365a.319.319,0,0,1,.092.224v22.1a.319.319,0,0,1-.319.319m-21.548-.639h21.229V195.17l-7.106-7.177H157.134Z" transform="translate(-156.497 -187.354)" fill="#9396a4"/>
  <rect id="사각형_6048" data-name="사각형 6048" width="21.866" height="7.365" transform="translate(0.319 22.415)" fill="#9396a4"/>
  <path id="패스_32622" data-name="패스 32622" d="M168.292,217.115a2.161,2.161,0,1,1,0-4.306,2.528,2.528,0,0,1,1.153.273v-6.742a.61.61,0,0,1,.5-.6l6.4-.838a.621.621,0,0,1,.468.14.59.59,0,0,1,.215.462v7.835a2.363,2.363,0,0,1-4.708,0,2.2,2.2,0,0,1,2.437-2.129,3.188,3.188,0,0,1,1.474.347v-3.234l-5.993.787v4.783c0,.1.006.207.013.316a5.852,5.852,0,0,1,.014.687c-.031,1.387-.771,2.22-1.978,2.22m0-3.509a1.368,1.368,0,1,0,0,2.711c.949,0,1.165-.787,1.18-1.449a5.1,5.1,0,0,0-.012-.61c0-.07-.008-.138-.011-.2a1.654,1.654,0,0,0-1.156-.447m6.469-1.6c-.756,0-1.64.347-1.64,1.331a1.572,1.572,0,0,0,3.114,0v-.818a2.194,2.194,0,0,0-1.474-.513m-4.519-5.5v1.8l5.993-.786v-1.8Z" transform="translate(-161.248 -196.178)" fill="#9396a4"/>
  <path id="패스_32623" data-name="패스 32623" d="M169.289,235.868l.985,2.881h.018l.994-2.881H172.3v3.913h-.771v-1.173l.075-1.716-.019-.01-1.04,2.9h-.52L169,236.891l-.018.009.075,1.707v1.173h-.781v-3.913Zm4.514,2.5v1.417h-.78v-3.913h1.543a1.483,1.483,0,0,1,1.049.348,1.256,1.256,0,0,1,0,1.8,1.525,1.525,0,0,1-1.049.346Zm0-.61h.763a.6.6,0,0,0,.659-.628.679.679,0,0,0-.167-.47.639.639,0,0,0-.492-.177H173.8Zm3.446-.262h.437a.5.5,0,0,0,.409-.151.541.541,0,0,0,.13-.4.5.5,0,0,0-.13-.375.487.487,0,0,0-.381-.142.554.554,0,0,0-.371.122.474.474,0,0,0-.149.347h-.752v-.018a.9.9,0,0,1,.343-.76,1.4,1.4,0,0,1,.911-.3,1.509,1.509,0,0,1,.957.291,1.023,1.023,0,0,1,.353.826.872.872,0,0,1-.158.488,1.1,1.1,0,0,1-.437.357.962.962,0,0,1,.484.356.937.937,0,0,1,.176.553,1.022,1.022,0,0,1-.39.845,1.579,1.579,0,0,1-.985.3,1.535,1.535,0,0,1-.929-.281.928.928,0,0,1-.371-.816v-.019h.752a.511.511,0,0,0,.158.375.6.6,0,0,0,.409.141.558.558,0,0,0,.417-.15.512.512,0,0,0,.158-.4.584.584,0,0,0-.148-.45.649.649,0,0,0-.455-.141h-.437Z" transform="translate(-162.422 -211.728)" fill="#fefefe"/>
</svg>
