<svg xmlns="http://www.w3.org/2000/svg" xmlns:xlink="http://www.w3.org/1999/xlink" width="39.719" height="50.719" viewBox="0 0 39.719 50.719">
  <defs>
    <linearGradient id="linear-gradient" x1="0.5" x2="0.5" y2="1.374" gradientUnits="objectBoundingBox">
      <stop offset="0" stop-color="#f9f9f9"/>
      <stop offset="1" stop-color="#ebebeb"/>
    </linearGradient>
  </defs>
  <g id="그룹_5748" data-name="그룹 5748" transform="translate(-499.92 -2522.6)">
    <path id="패스_20693" data-name="패스 20693" d="M0,0S10.48,4.025,13.283,8.057s6.5,7.422,12.59,7.422,7.623-3.506,8.41-8.148,1.8-5.709,2.994-7.33Z" transform="translate(539.639 2573.318) rotate(180)" fill="#f5b4b4"/>
    <g id="그룹_5055" data-name="그룹 5055" transform="matrix(0.999, 0.035, -0.035, 0.999, 162.174, -8.963)">
      <g id="그룹_5053" data-name="그룹 5053" transform="translate(0 -3)">
        <path id="합치기_34" data-name="합치기 34" d="M14.461,34.027a10.868,10.868,0,0,1-4.525-2.221l-4.69-4.525A79.716,79.716,0,0,1,.8,14.2C-1.005,6.806.8,4.247.8,4.247L6.733.269s2.6-.906,4.224.6c.324.3.676.607,1.031.905.466-.483,4-3.762,9.706,1.477l-3.249.931,1.425.059,4.137-1.9s2.941-.936,5-.05c.253-.146.442.023.773.439a3.367,3.367,0,0,1,1.692,1.509,5.513,5.513,0,0,1,.856,1.79c.678,1.74.236,4.19-.269,8.164a20.913,20.913,0,0,1-6.827,13.731c-4.371,4.22-8.012,6.126-10.291,6.126A3.62,3.62,0,0,1,14.461,34.027ZM14.9,4.042l.984.041L12.32,2.055C13.637,3.136,14.9,4.042,14.9,4.042Z" transform="translate(428.047 2522.01)" fill="url(#linear-gradient)"/>
        <path id="패스_20689" data-name="패스 20689" d="M3.569,0C5.594.079,7.278,1.281,7.332,2.687S5.789,5.174,3.764,5.1.055,3.822,0,2.415,1.545-.072,3.569,0Z" transform="translate(433.395 2524.557) rotate(8)" fill="#fff"/>
        <path id="패스_20690" data-name="패스 20690" d="M.954.588a1.513,1.513,0,0,1,1.529,1.3,1.262,1.262,0,0,1-1.44,1.186,1.513,1.513,0,0,1-1.529-1.3A1.262,1.262,0,0,1,.954.588Z" transform="translate(440.502 2527.377) rotate(17)" fill="#fff"/>
        <path id="패스_20691" data-name="패스 20691" d="M2.13.008C3.262-.066,4.145.4,4.1,1.039s-1,1.225-2.128,1.3S-.042,1.951,0,1.308,1,.082,2.13.008Z" transform="translate(451.582 2528.055) rotate(-50)" fill="#fff"/>
        <path id="패스_20667" data-name="패스 20667" d="M-18574.166-18688.389c1.867,1.527,7.086,3.576,10.049,7.877s1.684,7.139,3.27,7.105c1.08-.055-.654-4.822.92-9.682a6.18,6.18,0,0,1,2.584-2.984c-1.7.389-2.578,1.963-3.5.777-.564-.719-2.568-1.508-4.523-1.385-.83.055-1.562,1.008-2.473.875C-18570.16-18686.141-18570.771-18686.861-18574.166-18688.389Z" transform="translate(19010.176 21210.383)" fill="#d5d5d5"/>
        <g id="그룹_5035" data-name="그룹 5035" transform="translate(427.969 2522.012)">
          <path id="패스_20659" data-name="패스 20659" d="M-19767.193-18634.143c-1.158,5.4-2.254,7.934-5.111,11.949a20.4,20.4,0,0,1-8.295,6.828c-3.613,1.705-4.865,1.277-6.424,0s-3.713-.734-6.617-5.953-3.184-7.533-4.994-14.924,1.16-8.9,1.16-8.9l5.063-3.109s2.6-.9,4.225.605a16.456,16.456,0,0,0,7.082,3.24c2.889.559,3.287-.287,4.473-1,.723-.445,2.666-2.811,6.414-.912S-19766.035-18639.543-19767.193-18634.143Z" transform="translate(19799.221 18648.525)" fill="none" stroke="#0d176c" stroke-linecap="round" stroke-linejoin="round" stroke-width="1.5"/>
          <path id="패스_20660" data-name="패스 20660" d="M-19761.746-18646.252s2.141-4.34,10.221,1.732" transform="translate(19773.727 18647.951)" fill="none" stroke="#0d176c" stroke-linecap="round" stroke-width="1"/>
          <path id="패스_20661" data-name="패스 20661" d="M-19750.246-18635.32a15.917,15.917,0,0,1,2.975,10.441" transform="translate(19768.828 18639.611)" fill="none" stroke="#0d176c" stroke-linecap="round" stroke-width="0.6"/>
        </g>
      </g>
    </g>
  </g>
</svg>
