<svg xmlns="http://www.w3.org/2000/svg" xmlns:xlink="http://www.w3.org/1999/xlink" width="48.242" height="41.703" viewBox="0 0 48.242 41.703">
  <defs>
    <linearGradient id="linear-gradient" x1="0.5" x2="0.5" y2="1.374" gradientUnits="objectBoundingBox">
      <stop offset="0" stop-color="#f9f9f9"/>
      <stop offset="1" stop-color="#ebebeb"/>
    </linearGradient>
    <linearGradient id="linear-gradient-2" x1="0.915" y1="0.027" x2="0.5" y2="1" gradientUnits="objectBoundingBox">
      <stop offset="0" stop-color="#ababab"/>
      <stop offset="0.351" stop-color="#cecece"/>
      <stop offset="0.644" stop-color="#cbcbcb"/>
      <stop offset="1" stop-color="#b4b4b4"/>
    </linearGradient>
  </defs>
  <g id="그룹_5758" data-name="그룹 5758" transform="translate(-1086.824 -2522.072)">
    <path id="합치기_37" data-name="합치기 37" d="M19014.34,21449.82c-.5-5.568-3.41-4.943-5.883-14.25s1.924-12.861,1.924-12.861l8.811-4.373s3.545-1.137,5.758.764a12.206,12.206,0,0,0,5.1,2.424s1.158,1.648,3.313,0,2.041-2,4.336-3.187,4.857-1.707,7.648,0l4.842.764c.775-.555,5.725,4.18,4.842,10.584s-1.924,18.166-3.527,20.945c-1.654,1.158-8.887,1.869-11.93,1.492s-11.693,1-18.279,2.584c-3.148.758-4.98,2.035-5.982,2.035C19014.213,21456.74,19014.1,21455.215,19014.34,21449.82Z" transform="translate(-17920.418 -18894.352)" fill="url(#linear-gradient)"/>
    <ellipse id="타원_728" data-name="타원 728" cx="4.5" cy="3" rx="4.5" ry="3" transform="translate(1097.523 2525.938) rotate(17)" fill="#fff"/>
    <ellipse id="타원_729" data-name="타원 729" cx="2" cy="1.5" rx="2" ry="1.5" transform="translate(1105.18 2530.27) rotate(17)" fill="#fff"/>
    <ellipse id="타원_730" data-name="타원 730" cx="2.578" cy="1.5" rx="2.578" ry="1.5" transform="translate(1118.477 2529.887) rotate(-50)" fill="#fff"/>
    <path id="패스_20724" data-name="패스 20724" d="M-18574.166-18688.389c2.225,1.82,7.48,4.176,9.742,6.092s2.313,4.039,3.771,4.236-2.937-5.639,3.043-10.328c0,0-2.52,3.793-6.373,4.043C-18567.357-18684.125-18572.107-18687.463-18574.166-18688.389Z" transform="translate(19675.508 21212.016)" fill="#d5d5d5"/>
    <path id="패스_20725" data-name="패스 20725" d="M-19760.629-18648.186c-7.787-1.035-8.816-2.7-12.541,1.613s-8.543,1.047-10.762-.852-5.762-.762-5.762-.762-6.932,1.48-8.807,4.371-2.234,4.018-2.385,10.029,6.117,14.215,6.115,17.777c-.148,4.205-.076,6.193,1.7,6.861,14.4-7.393,29.932-5.76,34.906-5.592a80.222,80.222,0,0,0,3.445-15.119C-19753.836-18636.262-19752.842-18647.15-19760.629-18648.186Z" transform="translate(20888.461 21172.174)" fill="none" stroke="#0d176c" stroke-linecap="round" stroke-linejoin="round" stroke-width="1.5"/>
    <path id="패스_20726" data-name="패스 20726" d="M-19750.533-18634.721c.113.352,2.391,1.965,3.1,4.191" transform="translate(23531.281 17842.789) rotate(-9)" fill="none" stroke="#0d176c" stroke-linecap="round" stroke-width="0.6"/>
    <path id="패스_20702" data-name="패스 20702" d="M-20166.051-20388.937a42.817,42.817,0,0,0-10.127,1.66,61.872,61.872,0,0,0-9.607,3.668c-.947-.371-1.031-2.375-.969-4.25a131.074,131.074,0,0,1,20.369-4.7c6.885-.98,16.021.1,16.021.1a21.59,21.59,0,0,1-.994,3.33A108.091,108.091,0,0,0-20166.051-20388.937Z" transform="translate(21281.16 22945.797)" fill="url(#linear-gradient-2)"/>
  </g>
</svg>
