<svg id="icon_extension_xlsx" xmlns="http://www.w3.org/2000/svg" width="22.504" height="30.098" viewBox="0 0 22.504 30.098">
  <rect id="사각형_6064" data-name="사각형 6064" width="21.866" height="7.365" transform="translate(0.319 22.414)" fill="#9396a4"/>
  <path id="패스_32680" data-name="패스 32680" d="M167.51,49.9l.725-1.389h.9l-1.143,1.933,1.208,1.971h-.938l-.743-1.408-.743,1.408h-.911l1.18-1.971-1.152-1.933h.9Zm2.87,1.914H172.1v.6h-2.49v-3.9h.771Zm4.254-.413a.477.477,0,0,0-.158-.366,1.564,1.564,0,0,0-.557-.253,3.022,3.022,0,0,1-1.041-.479.968.968,0,0,1,.056-1.538,1.645,1.645,0,0,1,1.031-.31,1.517,1.517,0,0,1,1.04.347,1.032,1.032,0,0,1,.381.844v.01h-.752a.555.555,0,0,0-.176-.431.7.7,0,0,0-.5-.16.725.725,0,0,0-.483.131.459.459,0,0,0-.176.357.378.378,0,0,0,.185.319,2.489,2.489,0,0,0,.632.272,2.6,2.6,0,0,1,.966.469,1,1,0,0,1,.335.779.924.924,0,0,1-.4.788,1.665,1.665,0,0,1-1.031.291,1.922,1.922,0,0,1-1.106-.329,1.037,1.037,0,0,1-.455-.919l.01-.019h.751a.6.6,0,0,0,.214.516.965.965,0,0,0,.585.16.783.783,0,0,0,.484-.131.422.422,0,0,0,.167-.347m2.722-1.5.724-1.389h.911l-1.152,1.933,1.217,1.971h-.938l-.753-1.408-.743,1.408h-.9l1.17-1.971-1.142-1.933h.892Z" transform="translate(-161.209 -24.374)" fill="#fefefe"/>
  <g id="그룹_10155" data-name="그룹 10155" transform="translate(0)">
    <path id="패스_32681" data-name="패스 32681" d="M193.432,8H186.14a.319.319,0,0,1-.319-.319V.319a.319.319,0,0,1,.546-.225l7.292,7.365a.319.319,0,0,1-.227.544m-6.973-.638h6.208l-6.208-6.271Z" transform="translate(-171.247 0)" fill="#9396a4"/>
    <path id="패스_32682" data-name="패스 32682" d="M178.682,30.1H156.816a.318.318,0,0,1-.319-.319V.319A.318.318,0,0,1,156.816,0h14.575a.319.319,0,0,1,.226.094L178.91,7.46a.317.317,0,0,1,.091.224v22.1a.319.319,0,0,1-.319.319m-21.548-.638h21.229V7.815L171.258.638H157.134Z" transform="translate(-156.497)" fill="#9396a4"/>
    <path id="패스_32683" data-name="패스 32683" d="M178.627,24.632H160.94a.4.4,0,0,1-.4-.4v-2.8a.4.4,0,0,1,.4-.4h17.687a.4.4,0,0,1,.4.4v2.8a.4.4,0,0,1-.4.4m-17.288-.8h16.889v-2H161.338Z" transform="translate(-158.531 -10.582)" fill="#9396a4"/>
    <path id="패스_32684" data-name="패스 32684" d="M178.627,30.258H160.94a.4.4,0,0,1-.4-.4v-2.8a.4.4,0,0,1,.4-.4h17.687a.4.4,0,0,1,.4.4v2.8a.4.4,0,0,1-.4.4m-17.288-.8h16.889v-2H161.338Z" transform="translate(-158.531 -13.413)" fill="#9396a4"/>
    <path id="패스_32685" data-name="패스 32685" d="M178.627,35.874H160.94a.4.4,0,0,1-.4-.4V32.689a.4.4,0,0,1,.4-.4h17.687a.4.4,0,0,1,.4.4v2.786a.4.4,0,0,1-.4.4m-17.288-.8h16.889V33.088H161.338Z" transform="translate(-158.531 -16.242)" fill="#9396a4"/>
    <g id="그룹_10154" data-name="그룹 10154" transform="translate(7.454 10.457)">
      <g id="그룹_10153" data-name="그룹 10153" transform="translate(0 0)">
        <path id="패스_32686" data-name="패스 32686" d="M178.692,30.215h-6.8a.4.4,0,0,1-.4-.4V21.438a.4.4,0,0,1,.4-.4h6.8a.4.4,0,0,1,.4.4v8.378a.4.4,0,0,1-.4.4m-6.4-.8h6v-7.58h-6Z" transform="translate(-171.493 -21.039)" fill="#9396a4"/>
      </g>
    </g>
  </g>
</svg>
