<svg xmlns="http://www.w3.org/2000/svg" width="38.5" height="38.5" viewBox="0 0 38.5 38.5">
  <g id="그룹_5020" data-name="그룹 5020" transform="translate(-529.751 -2594.749)">
    <!-- <path id="패스_2225" data-name="패스 2225" d="M445.689,166.5h0a19,19,0,0,1-19-19h0a19,19,0,0,1,19-19h0a19,19,0,0,1,19,19h0A19,19,0,0,1,445.689,166.5Z" transform="translate(103.311 2466.494)" fill="none" stroke="#fff" stroke-miterlimit="10" stroke-width="0.5"/> -->
    <g id="그룹_3020" data-name="그룹 3020" transform="translate(538.566 2603.564)">
      <path id="패스_2226" data-name="패스 2226" d="M445.72,138.981c2.786,0,3.116.011,4.217.061a5.781,5.781,0,0,1,1.937.36,3.449,3.449,0,0,1,1.98,1.98,5.781,5.781,0,0,1,.36,1.937c.05,1.1.061,1.431.061,4.217s-.011,3.116-.061,4.216a5.782,5.782,0,0,1-.36,1.938,3.449,3.449,0,0,1-1.98,1.98,5.762,5.762,0,0,1-1.937.359c-1.1.05-1.43.061-4.217.061s-3.116-.011-4.216-.061a5.769,5.769,0,0,1-1.938-.359,3.456,3.456,0,0,1-1.98-1.98,5.764,5.764,0,0,1-.359-1.938c-.05-1.1-.061-1.43-.061-4.216s.011-3.116.061-4.217a5.762,5.762,0,0,1,.359-1.937,3.456,3.456,0,0,1,1.98-1.98,5.789,5.789,0,0,1,1.938-.36c1.1-.05,1.43-.061,4.216-.061m0-1.88c-2.834,0-3.189.013-4.3.063a7.666,7.666,0,0,0-2.533.485,5.336,5.336,0,0,0-3.051,3.052,7.639,7.639,0,0,0-.485,2.533c-.051,1.113-.063,1.468-.063,4.3s.012,3.189.063,4.3a7.639,7.639,0,0,0,.485,2.533,5.336,5.336,0,0,0,3.051,3.052,7.692,7.692,0,0,0,2.533.485c1.113.05,1.468.062,4.3.062s3.189-.012,4.3-.062a7.692,7.692,0,0,0,2.533-.485,5.341,5.341,0,0,0,3.052-3.052,7.667,7.667,0,0,0,.485-2.533c.051-1.113.063-1.468.063-4.3s-.012-3.189-.063-4.3a7.667,7.667,0,0,0-.485-2.533,5.341,5.341,0,0,0-3.052-3.052,7.666,7.666,0,0,0-2.533-.485c-1.113-.05-1.468-.063-4.3-.063" transform="translate(-435.286 -137.101)" fill="#fff"/>
      <path id="패스_2227" data-name="패스 2227" d="M445.72,142.178a5.358,5.358,0,1,0,5.358,5.358,5.358,5.358,0,0,0-5.358-5.358m0,8.836a3.478,3.478,0,1,1,3.478-3.478,3.478,3.478,0,0,1-3.478,3.478" transform="translate(-435.286 -137.101)" fill="#fff"/>
      <path id="패스_2228" data-name="패스 2228" d="M452.542,141.966a1.252,1.252,0,1,1-1.252-1.252,1.252,1.252,0,0,1,1.252,1.252" transform="translate(-435.286 -137.101)" fill="#fff"/>
    </g>
  </g>
</svg>
