<svg xmlns="http://www.w3.org/2000/svg" xmlns:xlink="http://www.w3.org/1999/xlink" width="34.686" height="50.166" viewBox="0 0 34.686 50.166">
  <defs>
    <linearGradient id="linear-gradient" x1="0.5" x2="0.5" y2="1.374" gradientUnits="objectBoundingBox">
      <stop offset="0" stop-color="#f9f9f9"/>
      <stop offset="1" stop-color="#ebebeb"/>
    </linearGradient>
  </defs>
  <g id="그룹_5750" data-name="그룹 5750" transform="translate(-657.113 -2523.152)">
    <g id="그룹_5057" data-name="그룹 5057" transform="translate(230.99 5)">
      <g id="그룹_5053" data-name="그룹 5053" transform="translate(427.969 2518.994)">
        <path id="합치기_34" data-name="합치기 34" d="M14.211,41.545a10.206,10.206,0,0,1-4.316-2.219L5.423,34.8S-.039,22.235-.643,19.646c-1.729-7.394,1.41-15.4,1.41-15.4L6.42.269s2.48-.905,4.029.6c.31.3.646.608.985.907.448-.487,3.819-3.758,9.253,1.478l-3.094.93,1.354.059,3.947-1.9s2.8-.936,4.771-.049c.242-.148.423.023.74.44a3.248,3.248,0,0,1,1.613,1.507,5.637,5.637,0,0,1,.817,1.8c.641,1.739.22,4.189-.258,8.157-.619,5.086-1.614,16.717-6.09,21.25-4.168,4.22-7.638,6.126-9.812,6.125A3.3,3.3,0,0,1,14.211,41.545Zm0-37.5.937.041L11.756,2.06C13.009,3.138,14.211,4.041,14.211,4.041Z" transform="translate(0.077 0.015)" fill="url(#linear-gradient)"/>
        <path id="패스_20689" data-name="패스 20689" d="M3.569,0C5.594.079,7.278,1.281,7.332,2.687S5.789,5.174,3.764,5.1.055,3.822,0,2.415,1.545-.072,3.569,0Z" transform="translate(5.426 2.563) rotate(8)" fill="#fff"/>
        <path id="패스_20690" data-name="패스 20690" d="M1.441,0a1.513,1.513,0,0,1,1.529,1.3,1.262,1.262,0,0,1-1.44,1.186A1.513,1.513,0,0,1,0,1.187,1.262,1.262,0,0,1,1.441,0Z" transform="translate(11.316 5.801) rotate(17)" fill="#fff"/>
        <path id="패스_20691" data-name="패스 20691" d="M2.13.008C3.262-.066,4.145.4,4.1,1.039s-1,1.225-2.128,1.3S-.042,1.951,0,1.308,1,.082,2.13.008Z" transform="translate(22.097 6.061) rotate(-50)" fill="#fff"/>
        <path id="패스_20667" data-name="패스 20667" d="M-18574.166-18688.389c1.7,1.527,6.447,3.576,9.143,7.877s1.533,7.139,2.975,7.105c.984-.055-.594-4.822.838-9.682a6.061,6.061,0,0,1,2.352-2.984c-1.551.389-2.346,1.963-3.189.777a5.329,5.329,0,0,0-4.115-1.385c-.754.055-1.422,1.008-2.25.875C-18570.521-18686.141-18571.078-18686.861-18574.166-18688.389Z" transform="translate(18582.207 18688.389)" fill="#d5d5d5"/>
        <g id="그룹_5035" data-name="그룹 5035" transform="translate(0 0.018)">
          <path id="패스_20659" data-name="패스 20659" d="M-19768.684-18634.143c-1.105,5.4-2.631,15.34-5.355,19.355a19.7,19.7,0,0,1-7.91,6.828c-3.445,1.705-4.639,1.277-6.125,0s-3.539-.734-6.309-5.953c-1.561-2.941-5.471-10.73-5.914-18.793-.238-4.283,2.154-9.854,3.107-11.705,2.561-4.979,6.939-4.75,8.488-3.24a15.377,15.377,0,0,0,6.752,3.24c2.754.559,3.135-.287,4.266-1,.688-.445,2.541-2.811,6.115-.912S-19767.58-18639.543-19768.684-18634.143Z" transform="translate(19799.221 18648.525)" fill="none" stroke="#0d176c" stroke-linecap="round" stroke-linejoin="round" stroke-width="1.5"/>
          <path id="패스_20660" data-name="패스 20660" d="M-19761.746-18646.252s2.141-4.34,10.221,1.732" transform="translate(19772.914 18647.951)" fill="none" stroke="#0d176c" stroke-linecap="round" stroke-width="1"/>
          <path id="패스_20661" data-name="패스 20661" d="M-19750.246-18635.32a15.917,15.917,0,0,1,2.975,10.441" transform="translate(19767.875 18639.611)" fill="none" stroke="#0d176c" stroke-linecap="round" stroke-width="0.6"/>
        </g>
      </g>
    </g>
    <path id="패스_20697" data-name="패스 20697" d="M0,0S5.7,1.256,7.973,10.367a13.618,13.618,0,0,0,9.962,4.656c2.1,0,6.458-1.93,9.172-4.656C30.3,1.6,32.934,1,33.6,0Z" transform="translate(691.799 2573.318) rotate(180)" fill="#f5b4b4"/>
  </g>
</svg>
