<svg id="icon_extension_txt" xmlns="http://www.w3.org/2000/svg" width="22.505" height="30.089" viewBox="0 0 22.505 30.089">
  <path id="패스_32687" data-name="패스 32687" d="M115.184,195.358h-7.292a.319.319,0,0,1-.319-.319v-7.365a.319.319,0,0,1,.546-.225l7.292,7.365a.319.319,0,0,1-.227.543m-6.973-.638h6.208l-6.208-6.27Z" transform="translate(-92.998 -187.355)" fill="#9396a4"/>
  <path id="패스_32688" data-name="패스 32688" d="M100.433,217.443H78.567a.319.319,0,0,1-.319-.318V187.674a.319.319,0,0,1,.319-.319H93.142a.317.317,0,0,1,.226.094l7.293,7.365a.321.321,0,0,1,.091.224v22.087a.319.319,0,0,1-.319.318m-21.548-.638h21.229V195.17l-7.105-7.177H78.886Z" transform="translate(-78.248 -187.355)" fill="#9396a4"/>
  <rect id="사각형_6066" data-name="사각형 6066" width="21.866" height="7.366" transform="translate(0.32 22.404)" fill="#9396a4"/>
  <path id="패스_32689" data-name="패스 32689" d="M94.264,236.526h-1.1v3.3H92.4v-3.3H91.3v-.6h2.963Zm1.793.778.724-1.379h.9l-1.143,1.933,1.217,1.971h-.937l-.752-1.408-.743,1.408h-.911l1.18-1.971-1.143-1.933h.892Zm4.774-.778h-1.1v3.3h-.781v-3.3H97.868v-.6h2.963Z" transform="translate(-84.813 -211.785)" fill="#fefefe"/>
  <path id="패스_32690" data-name="패스 32690" d="M100.478,209.172H85.893a.319.319,0,0,1,0-.638h14.585a.319.319,0,0,1,0,.638" transform="translate(-81.933 -198.007)" fill="#9396a4"/>
  <path id="패스_32691" data-name="패스 32691" d="M112.182,214.119h-3.02a.319.319,0,0,1,0-.639h3.02a.319.319,0,0,1,0,.639" transform="translate(-93.637 -200.495)" fill="#9396a4"/>
  <path id="패스_32692" data-name="패스 32692" d="M100.478,219.065H85.893a.319.319,0,0,1,0-.638h14.585a.319.319,0,0,1,0,.638" transform="translate(-81.933 -202.983)" fill="#9396a4"/>
  <path id="패스_32693" data-name="패스 32693" d="M93.186,223.991H85.894a.319.319,0,0,1,0-.638h7.293a.319.319,0,1,1,0,.638" transform="translate(-81.933 -205.462)" fill="#9396a4"/>
  <path id="패스_32694" data-name="패스 32694" d="M110.753,223.991h-4.431a.319.319,0,1,1,0-.638h4.431a.319.319,0,0,1,0,.638" transform="translate(-92.208 -205.462)" fill="#9396a4"/>
  <path id="패스_32695" data-name="패스 32695" d="M93.186,214.119H85.894a.319.319,0,0,1,0-.639h7.293a.319.319,0,0,1,0,.639" transform="translate(-81.933 -200.495)" fill="#9396a4"/>
</svg>
