<svg id="icon_speach_bubble" xmlns="http://www.w3.org/2000/svg" width="30.576" height="24.309" viewBox="0 0 30.576 24.309">
  <path id="패스_30673" data-name="패스 30673" d="M311.979,306.928h-.845v9.291a2.515,2.515,0,0,1-2.531,2.756H292.06v.442a2.979,2.979,0,0,0,2.948,2.57h12.649l4.839,2.845-.7-2.845h.186c1.493,0,2.166-1.289,2.166-2.57V309.134A1.991,1.991,0,0,0,311.979,306.928Z" transform="translate(-283.569 -300.522)" fill="#fff" opacity="0.48"/>
  <path id="패스_30674" data-name="패스 30674" d="M172.028,202.038H152.407a3.3,3.3,0,0,0-3.229,2.949v11.645c0,1.333,1.648,2.3,3.229,2.443l-1.029,3.906,6.593-3.878h14.056c1.69,0,3.251-1.025,3.251-2.472V204.987A3.318,3.318,0,0,0,172.028,202.038Zm-16.283,9.83a1.736,1.736,0,1,1,1.736-1.736A1.736,1.736,0,0,1,155.745,211.868Zm6.483,0a1.736,1.736,0,1,1,1.736-1.736A1.736,1.736,0,0,1,162.228,211.868Zm6.484,0a1.736,1.736,0,1,1,1.736-1.736A1.736,1.736,0,0,1,168.712,211.868Z" transform="translate(-149.178 -202.038)" fill="#fff"/>
</svg>
