<svg width="26" height="22" viewBox="0 0 26 22" fill="none" xmlns="http://www.w3.org/2000/svg">
<path d="M23.981 11.0725H2.01904C1.45688 11.0725 1 10.5985 1 10.018V7.94388C1 7.36339 1.45688 6.8916 2.01904 6.8916H6.85525C7.03 6.8916 7.17107 7.03727 7.17107 7.21772C7.17107 7.39818 7.03 7.54384 6.85525 7.54384H2.01904C1.80639 7.54384 1.63163 7.72212 1.63163 7.94388V10.018C1.63163 10.2398 1.80639 10.4181 2.01904 10.4181H23.981C24.1957 10.4181 24.3684 10.2376 24.3684 10.018V7.94388C24.3684 7.72212 24.1936 7.54384 23.981 7.54384H19.1426C18.9679 7.54384 18.8268 7.39818 18.8268 7.21772C18.8268 7.03727 18.9679 6.8916 19.1426 6.8916H23.9789C24.541 6.8916 24.9979 7.36339 24.9979 7.94388V10.018C25 10.5985 24.5431 11.0725 23.981 11.0725Z" fill="#313136" stroke="#313136" stroke-width="0.5"/>
<path d="M17.2225 7.54384H8.77755C8.6028 7.54384 8.46173 7.39818 8.46173 7.21772C8.46173 7.03727 8.6028 6.8916 8.77755 6.8916H17.2246C17.3994 6.8916 17.5404 7.03727 17.5404 7.21772C17.5383 7.39818 17.3972 7.54384 17.2225 7.54384Z" fill="#313136" stroke="#313136" stroke-width="0.5"/>
<path d="M22.6166 21.0016H3.38336C3.22335 21.0016 3.0886 20.8777 3.06965 20.7146L1.9306 10.7831L2.55803 10.707L3.66339 20.3493H22.3366L23.442 10.707L24.0694 10.7831L22.9303 20.7146C22.9114 20.8798 22.7766 21.0016 22.6166 21.0016Z" fill="#313136" stroke="#313136" stroke-width="0.5"/>
<path d="M7.51005 10.7461H6.87842V20.6776H7.51005V10.7461Z" fill="#313136" stroke="#313136" stroke-width="0.5"/>
<path d="M11.3799 10.7461H10.7482V20.6776H11.3799V10.7461Z" fill="#313136" stroke="#313136" stroke-width="0.5"/>
<path d="M15.2518 10.7461H14.6201V20.6776H15.2518V10.7461Z" fill="#313136" stroke="#313136" stroke-width="0.5"/>
<path d="M19.1216 10.7461H18.4899V20.6776H19.1216V10.7461Z" fill="#313136" stroke="#313136" stroke-width="0.5"/>
<path d="M23.3872 13.6641H2.61066V14.3163H23.3872V13.6641Z" fill="#313136" stroke="#313136" stroke-width="0.5"/>
<path d="M22.9914 17.1055H3.00439V17.7577H22.9914V17.1055Z" fill="#313136" stroke="#313136" stroke-width="0.5"/>
<path d="M19.9511 8.95878C19.8438 8.95878 19.7385 8.90225 19.6795 8.79789L15.6771 1.77977C15.5886 1.62541 15.6392 1.42539 15.7887 1.33408C15.9403 1.24276 16.1319 1.29494 16.2203 1.4493L20.2227 8.46742C20.3112 8.62179 20.2606 8.82181 20.1111 8.91312C20.0606 8.94573 20.0059 8.95878 19.9511 8.95878Z" fill="#313136" stroke="#313136" stroke-width="0.5"/>
<path d="M6.04884 8.95878C5.99409 8.95878 5.93935 8.94356 5.88882 8.91312C5.73934 8.82181 5.6888 8.62179 5.77723 8.46742L9.77969 1.4493C9.86812 1.29494 10.0618 1.24276 10.2113 1.33408C10.3608 1.42539 10.4113 1.62541 10.3229 1.77977L6.32044 8.79789C6.26359 8.90225 6.15621 8.95878 6.04884 8.95878Z" fill="#313136" stroke="#313136" stroke-width="0.5"/>
<path d="M10.8493 0.227575C10.0977 -0.231168 9.13125 0.0253801 8.687 0.801548L6.83421 4.03884C6.57103 4.49976 6.55208 5.03894 6.73946 5.49769L9.23442 1.11897C9.40496 0.821115 9.71656 0.636313 10.0513 0.636313C10.2198 0.636313 10.3861 0.68197 10.5314 0.77111C10.9819 1.04505 11.1335 1.64511 10.8682 2.11038L8.37118 6.48909C8.84491 6.43257 9.28916 6.15645 9.55023 5.69988L11.403 2.46259C11.8473 1.68642 11.5988 0.686318 10.8493 0.227575Z" fill="#CAE1EF"/>
<path d="M15.1255 0.227575C15.8771 -0.231168 16.8435 0.0253801 17.2878 0.801548L19.1405 4.03884C19.4037 4.49976 19.4227 5.03894 19.2353 5.49769L16.7403 1.11897C16.5698 0.821115 16.2582 0.636313 15.9234 0.636313C15.755 0.636313 15.5887 0.68197 15.4434 0.77111C14.9928 1.04505 14.8412 1.64511 15.1065 2.11038L17.6015 6.48692C17.1277 6.43039 16.6835 6.15428 16.4224 5.69771L14.5696 2.46042C14.1275 1.68642 14.3759 0.686318 15.1255 0.227575Z" fill="#CAE1EF"/>
</svg>
