<svg xmlns="http://www.w3.org/2000/svg" width="14.95" height="15.492" viewBox="0 0 14.95 15.492">
  <g id="그룹_6370" data-name="그룹 6370" transform="translate(0)">
    <path id="패스_21617" data-name="패스 21617" d="M162.623,708.337h0a.249.249,0,0,1,.252,0l1.767.872c.551-.78,2.685-3.647,5.507-3.694h.046a5.131,5.131,0,0,1,2.042.5.342.342,0,0,1,.137.344.045.045,0,0,1-.046.046.218.218,0,0,1-.252.115c-.046,0-1.927-.069-3.487,2.271-.344.505-.665,1.148-1.1,1.9l1.9.918a.377.377,0,0,1,.16.252.273.273,0,0,1-.115.206l-5.713,3.19a.539.539,0,0,1-.252.046.521.521,0,0,1-.183-.206l-.8-6.517a.354.354,0,0,1,.137-.252Z" transform="translate(-162.486 -705.514)" fill="#fff" fill-rule="evenodd"/>
    <path id="패스_21618" data-name="패스 21618" d="M177.218,731.365c.046-.092.115-.183.252-.137.046,0,1.927.092,3.487-2.271.344-.505.665-1.124,1.1-1.882l-1.9-.918a.346.346,0,0,1-.16-.252.282.282,0,0,1,.115-.229l5.713-3.189a.353.353,0,0,1,.252-.046.461.461,0,0,1,.183.229l.78,6.494v.045c0,.092-.023.184-.114.207a.249.249,0,0,1-.252,0l-1.767-.872c-.665.963-3.786,5.093-7.594,3.189a.344.344,0,0,1-.137-.345s0-.023.046-.023Z" transform="translate(-172.088 -716.736)" fill="#fff" fill-rule="evenodd"/>
  </g>
</svg>
