<svg id="그룹_11353" data-name="그룹 11353" xmlns="http://www.w3.org/2000/svg" xmlns:xlink="http://www.w3.org/1999/xlink" width="25" height="25.001" viewBox="0 0 25 25.001">
  <defs>
    <clipPath id="clip-path">
      <rect id="사각형_7216" data-name="사각형 7216" width="25" height="25.001" fill="#0782ed"/>
    </clipPath>
  </defs>
  <g id="그룹_11348" data-name="그룹 11348" clip-path="url(#clip-path)">
    <path id="패스_34797" data-name="패스 34797" d="M8.835,15.631c-.195-1.554-.388-3.059-.485-4.564a20.918,20.918,0,0,1,.291-4.951,7.7,7.7,0,0,1,2.234-4.127A9.16,9.16,0,0,1,15.632,0h-.438a10.637,10.637,0,0,0-5.048.923,9.046,9.046,0,0,0-3.98,4.32,21.429,21.429,0,0,0-1.748,5.534c-.34,1.6-.534,3.252-.729,4.855H0L6.263,24.9l6.213-9.272ZM18.738.1l-6.262,9.32h3.689c.195,1.554.389,3.058.437,4.563a18.207,18.207,0,0,1-.243,4.9,7.363,7.363,0,0,1-2.233,4.126A8.436,8.436,0,0,1,9.369,25a11.278,11.278,0,0,0,5.486-.874,9.272,9.272,0,0,0,3.98-4.32,23.558,23.558,0,0,0,1.747-5.534c.34-1.65.535-3.253.729-4.855H25Z" transform="translate(0 0)" fill="#0782ed" fill-rule="evenodd"/>
  </g>
</svg>
