<svg xmlns="http://www.w3.org/2000/svg" width="16" height="16" viewBox="0 0 16 16">
  <path id="합치기_13" data-name="합치기 13" d="M.977,15a.991.991,0,0,1-.684-.27.264.264,0,0,1-.061-.061.216.216,0,0,1-.021-.027A.921.921,0,0,1,0,14.061V5.605a.908.908,0,0,1,.354-.718l.947-.76V.314A.323.323,0,0,1,1.629,0H13.367A.321.321,0,0,1,13.7.314V4.127l.955.76a.913.913,0,0,1,.3.429.248.248,0,0,1,.01.036A.849.849,0,0,1,15,5.605v8.455a.921.921,0,0,1-.211.582.2.2,0,0,1-.02.027.393.393,0,0,1-.061.058.988.988,0,0,1-.686.273Zm12.842-.625-5.783-4.2a.909.909,0,0,0-1.07,0l-5.785,4.2Zm-13.166-.4L6.125,10,.652,6.03Zm13.7,0V6.033L8.877,10ZM6.668,9.612a1.567,1.567,0,0,1,1.666,0l4.709-3.417V.625H1.957v5.57ZM13.7,5.721l.514-.373L13.7,4.938ZM1.3,5.718V4.941l-.51.408Zm5.875.846V5H5.543a.313.313,0,1,1,0-.625H7.176V2.814a.326.326,0,0,1,.652,0V4.375H9.457a.313.313,0,1,1,0,.625H7.828V6.564a.327.327,0,0,1-.652,0Z" transform="translate(0.5 0.5)" fill="#33b5e4" stroke="rgba(0,0,0,0)" stroke-miterlimit="10" stroke-width="1"/>
</svg>
